<svg width="25" height="24" viewBox="0 0 25 24" fill="none" xmlns="http://www.w3.org/2000/svg">
    <path
        d="M20.9201 4.57999C20.4184 4.07656 19.8223 3.67713 19.1659 3.40458C18.5095 3.13203 17.8058 2.99173 17.0951 2.99173C16.3844 2.99173 15.6806 3.13203 15.0243 3.40458C14.3679 3.67713 13.7718 4.07656 13.2701 4.57999L12.5001 5.35999L11.7301 4.57999C11.2284 4.07656 10.6323 3.67713 9.97591 3.40458C9.31953 3.13203 8.6158 2.99173 7.90509 2.99173C7.19437 2.99173 6.49065 3.13203 5.83427 3.40458C5.17789 3.67713 4.58176 4.07656 4.08009 4.57999C1.96009 6.69999 1.83009 10.28 4.50009 13L12.5001 21L20.5001 13C23.1701 10.28 23.0401 6.69999 20.9201 4.57999Z"
        style="stroke: light-dark(#66FFA1, #003314); stroke-width: 1.25; stroke-linecap: round; stroke-linejoin: round" />

    <path d="M4 12H10L10.5 11L12.5 15.5L14.5 8.5L16 12H21"
        style="stroke: light-dark(#66FFA1, #003314); stroke-width: 1.25; stroke-linecap: round; stroke-linejoin: round" />
</svg>