<svg width="54" height="49" viewBox="0 0 54 49" fill="none" xmlns="http://www.w3.org/2000/svg">
<path d="M5.39644 22.6403C5.8165 22.6073 6.22429 22.5958 6.64379 22.637C8.77392 22.8463 10.759 24.3709 12.0772 26.0892C11.9469 26.3337 11.7972 26.5586 11.635 26.7807C10.4816 28.3605 8.78948 29.1904 6.9635 29.4357C6.49291 29.436 6.01682 29.4501 5.54916 29.3853C3.15206 29.0533 1.41196 27.4672 0 25.4775C1.45921 23.913 3.34707 22.8883 5.39644 22.6403Z" fill="#1EFA85"/>
<path d="M9.02209 31.8138C10.5761 31.673 11.7838 31.9483 13.2323 32.5495C12.8907 33.9271 12.4481 35.2311 11.6669 36.4011C10.4588 38.2108 8.83917 39.151 6.8103 39.5026C5.15792 39.5634 3.74778 39.42 2.2124 38.7366C2.67421 37.3229 3.20779 35.9436 4.06072 34.7413C5.30917 32.9818 7.00073 32.1039 9.02209 31.8138Z" fill="#1EFA85"/>
<path d="M36.0106 38.3381C36.4285 38.3307 36.8447 38.3315 37.262 38.3602C39.3989 38.5078 41.3272 39.3482 42.7414 41.1046C44.3467 43.0983 44.7404 45.6219 44.5641 48.1825C44.3703 48.1818 44.1788 48.1765 43.9854 48.163C41.6118 47.9982 39.3608 47.1836 37.7588 45.221C36.1014 43.1906 35.8451 40.9221 36.0106 38.3381Z" fill="#1EFA85"/>
<path d="M15.8029 38.3563C16.3921 38.3096 16.9678 38.3323 17.5576 38.3614C17.7827 40.6249 17.5452 42.7579 16.2614 44.6485C14.9467 46.5845 13.1126 47.6044 10.9364 47.9785C10.3142 48.025 9.69141 48.0594 9.06811 48.082C8.95 45.5709 9.19061 43.2422 10.7086 41.2132C12.0024 39.4835 13.7753 38.6107 15.8029 38.3563Z" fill="#1EFA85"/>
<path d="M47.224 22.6398C49.865 22.5266 52.0158 23.6419 54 25.4294C53.9086 25.5629 53.8158 25.6955 53.7217 25.8269C52.367 27.7155 50.5176 28.9886 48.2927 29.3098C47.426 29.4038 46.5101 29.3302 45.6636 29.1142C43.9881 28.6866 42.4203 27.6755 41.5029 26.0958C41.5498 26.0312 41.5974 25.9672 41.6458 25.9037C43.0821 24.0215 44.9608 22.8845 47.224 22.6398Z" fill="#1EFA85"/>
<path d="M43.4651 31.7222C43.621 31.7101 43.777 31.7033 43.9331 31.7019C44.0894 31.7005 44.2455 31.7043 44.4015 31.7134C44.5575 31.7225 44.7131 31.737 44.8683 31.7568C45.0234 31.7764 45.1778 31.8013 45.3315 31.8315C45.4851 31.8619 45.6377 31.8973 45.7893 31.9378C45.9408 31.9784 46.091 32.0241 46.2398 32.0748C46.3886 32.1256 46.5357 32.1814 46.6813 32.2422C46.8266 32.303 46.9701 32.3687 47.1117 32.4392C49.6584 33.693 50.8767 35.9141 51.8056 38.6171C50.8488 39.1527 49.9267 39.4044 48.8619 39.5593C48.6715 39.5877 48.4802 39.6075 48.2882 39.6188C48.0962 39.6302 47.9041 39.6329 47.7118 39.627C47.5195 39.6213 47.3278 39.6069 47.1366 39.5839C46.9456 39.561 46.7557 39.5295 46.567 39.4896C46.3784 39.4497 46.1917 39.4015 46.0068 39.3449C45.8219 39.2883 45.6396 39.2235 45.4599 39.1506C45.2801 39.0777 45.1034 38.9969 44.93 38.9083C44.7566 38.8196 44.587 38.7234 44.4211 38.6195C42.2159 37.2429 41.144 35.0251 40.5117 32.4667C41.4516 31.9749 42.4316 31.8075 43.4651 31.7222Z" fill="#1EFA85"/>
<path d="M15.006 23.1208C15.2774 23.0702 15.5847 23.0675 15.8608 23.0525C17.9539 22.9376 19.9403 23.6796 21.4821 25.1988C23.14 26.8322 23.792 28.8809 23.8708 31.241C23.3504 31.4039 22.8638 31.4884 22.3255 31.548C20.531 31.7093 18.8383 31.2797 17.3202 30.2352C15.0181 28.6514 13.9859 26.2413 13.4155 23.4799C13.9389 23.3166 14.4697 23.2212 15.006 23.1208Z" fill="#1EFA85"/>
<path d="M44.7561 12.0902C45.9068 11.9482 47.0571 12.0437 48.1896 12.28C47.897 14.1451 47.5407 15.8711 46.482 17.4328C45.2319 19.2769 43.3971 20.2688 41.3314 20.6392C40.4618 20.7236 39.0305 20.9116 38.2143 20.5728C38.0735 20.5144 38.0166 20.4726 37.9836 20.3045C37.7302 19.0119 38.8723 16.2235 39.6179 15.1777C40.8788 13.4086 42.7159 12.4005 44.7561 12.0902Z" fill="#1EFA85"/>
<path d="M7.02444 11.8054C7.91124 11.7478 8.82917 11.7839 9.70004 11.9791C9.82187 12.0058 9.94303 12.0356 10.0635 12.0686C10.1839 12.1016 10.3035 12.1378 10.4222 12.1771C10.541 12.2166 10.6588 12.2591 10.7756 12.3047C10.8925 12.3502 11.0081 12.3988 11.1226 12.4505C11.2371 12.5022 11.3504 12.5569 11.4623 12.6145C11.5744 12.6722 11.685 12.7328 11.7941 12.7963C11.9032 12.8599 12.0108 12.9262 12.1169 12.9955C12.223 13.0647 12.3274 13.1367 12.4302 13.2115C12.533 13.2862 12.634 13.3636 12.7331 13.4436C12.8322 13.5237 12.9294 13.6063 13.0248 13.6916C13.12 13.7767 13.2132 13.8644 13.3044 13.9546C13.3957 14.0447 13.4848 14.1372 13.5717 14.2321C13.6586 14.3269 13.7433 14.4239 13.8257 14.5232C13.9081 14.6226 13.9881 14.724 14.0658 14.8277C14.1435 14.9311 14.2188 15.0366 14.2915 15.1442C14.3643 15.2517 14.4345 15.3611 14.5023 15.4724C15.2657 16.7453 16.0607 19.0491 15.7537 20.5475C15.5667 20.7096 15.3809 20.7086 15.1489 20.7492C14.18 20.7822 13.215 20.7857 12.2585 20.5949C10.314 20.2068 8.59057 19.0772 7.48404 17.3139C6.69575 16.0582 5.81115 13.4114 6.09076 11.9358C6.38117 11.821 6.71553 11.8282 7.02444 11.8054Z" fill="#1EFA85"/>
<path d="M14.838 4.59995C15.133 4.6377 15.4246 4.69485 15.7129 4.77139C18.0183 5.38901 20.062 6.8281 21.2687 9.04512C22.4825 11.2754 22.3677 13.6814 21.7503 16.0961C21.2008 16.0611 20.6309 15.9668 20.0981 15.8206C18.1754 15.2924 16.473 14.0585 15.4687 12.2119C14.1843 9.85038 14.1854 7.17508 14.838 4.59995Z" fill="#1EFA85"/>
<path d="M37.3282 23.0316C38.4516 22.9449 39.5479 23.1323 40.6226 23.4682C40.458 25.1449 39.9429 26.8117 38.9757 28.1621C37.5771 30.115 35.5248 31.2147 33.2768 31.5501C32.1537 31.6777 31.1051 31.5074 30.0117 31.2436C30.2009 29.3484 30.6715 27.4399 31.8289 25.9428C33.2198 24.1434 35.189 23.2493 37.3282 23.0316Z" fill="#1EFA85"/>
<path d="M38.8135 4.66401L39.1143 4.64468C39.3767 4.88837 39.4205 5.1967 39.4923 5.55657C39.9482 7.84251 39.5781 10.5061 38.3496 12.4578C37.0135 14.5805 34.9271 15.5974 32.6337 16.0619C32.5101 16.0637 32.3229 16.109 32.2226 16.0209C31.9716 15.8005 31.8597 15.2155 31.806 14.8866C31.7821 14.7432 31.7615 14.5992 31.7443 14.4547C31.727 14.3101 31.713 14.1651 31.7024 14.0199C31.6919 13.8746 31.6847 13.7292 31.6808 13.5836C31.6769 13.438 31.6763 13.2923 31.6791 13.1466C31.6819 13.001 31.6882 12.8554 31.6978 12.71C31.7073 12.5646 31.7202 12.4196 31.7364 12.275C31.7527 12.1304 31.7722 11.9862 31.795 11.8425C31.818 11.6989 31.8442 11.556 31.8736 11.4137C31.903 11.2714 31.9357 11.13 31.9717 10.9894C32.0077 10.8488 32.047 10.7092 32.0895 10.5707C32.1318 10.4322 32.1774 10.295 32.2263 10.1589C32.275 10.0228 32.3268 9.88796 32.3817 9.75453C32.4368 9.62123 32.4948 9.48936 32.5559 9.35893C32.6169 9.22862 32.6809 9.09995 32.7478 8.97289C32.8148 8.84597 32.8847 8.72081 32.9574 8.5974C33.0302 8.47413 33.1057 8.3528 33.1841 8.23343C34.5494 6.16305 36.5165 5.10609 38.8135 4.66401Z" fill="#1EFA85"/>
<path d="M26.9806 15.3958C27.3433 15.6242 27.668 15.9468 27.959 16.271C29.4511 17.9348 30.4399 20.4812 30.3601 22.7935C30.2674 25.4716 28.947 27.5562 27.176 29.3298L27.0705 29.3534C26.8744 29.2735 26.7448 29.1687 26.5935 29.0172C24.9479 27.3672 23.8751 24.9897 23.8483 22.5701C23.8168 19.7224 25.1651 17.3666 26.9806 15.3958Z" fill="#1EFA85"/>
<path d="M27.1344 0.5C27.3276 0.589821 27.251 0.534951 27.4169 0.697605C29.1662 2.41241 30.2821 4.65325 30.3271 7.20944C30.3817 10.2954 28.9292 12.5579 26.9872 14.6865C26.614 14.3372 26.2646 13.9627 25.9391 13.5629C24.5394 11.8538 23.5083 9.52077 23.6661 7.21081C23.8525 4.48005 25.2247 2.24312 27.1344 0.5Z" fill="#1EFA85"/>
<path d="M24.108 33.181C26.0578 33.0878 28.0251 33.1343 29.9773 33.1263C29.9696 38.2436 29.8665 43.3866 30.0282 48.5C28.0563 48.4482 26.0787 48.4822 24.106 48.4842C24.1044 43.3917 23.9936 38.2707 24.108 33.181Z" fill="#1EFA85"/>
</svg>
