<?xml version="1.0" encoding="utf-8" ?>
<svg xmlns="http://www.w3.org/2000/svg" xmlns:xlink="http://www.w3.org/1999/xlink" width="612" height="408">
	<path fill="#020B08" d="M59.6835 56.633L60.0903 56.1169L60.486 56.122C61.2311 57.7094 61.0436 59.9646 61.018 61.6938L60.0796 60.9883C59.4895 59.6877 59.6919 58.0468 59.6835 56.633Z"/>
	<path fill="#45B987" d="M249.826 312.403Q250.549 312.421 251.269 312.486C252.158 312.573 253.109 312.801 253.675 313.502C253.227 314.198 252.887 314.213 252.132 314.511C251.561 314.509 250.983 314.51 250.414 314.46C249.549 314.383 248.655 314.164 248.108 313.492C248.637 312.791 249.025 312.729 249.826 312.403Z"/>
	<path fill="#45B987" d="M385.733 344.422C387.457 344.217 389.908 344.093 391.445 344.995L391.406 345.445L390.797 345.903C389.489 346.038 387.681 346.268 386.407 345.973C385.753 345.822 385.692 345.802 385.329 345.247L385.733 344.422Z"/>
	<path fill="#30F191" d="M157.251 321.875C158.783 321.906 160.08 322.475 161.153 323.55C161.563 323.961 161.573 323.935 161.569 324.498L160.75 324.822C159.603 324.865 158.314 325.009 157.176 324.885C156.463 324.808 156.323 324.71 155.878 324.167C155.991 323.165 156.615 322.603 157.251 321.875Z"/>
	<path fill="#93F2BC" d="M450.304 304.774C451.037 305.773 450.885 306.437 450.709 307.639C450.378 309.904 448.176 320.406 446.772 321.487C446.421 321.757 446.347 321.685 445.935 321.684L445.162 321.118C445.596 320.839 445.83 320.733 446.055 320.248C446.962 318.29 449.298 307.813 448.707 305.998C444.386 306.192 439.96 305.991 435.629 305.971L435.207 305.777C435.317 305.298 439.181 306.071 440.378 305.236C443.429 305.231 447.376 305.648 450.304 304.774Z"/>
	<path fill="#30F191" fill-opacity="0.98823529" d="M297.692 323.501C298.778 325.16 297.605 341.879 298.956 343.705C298.947 343.625 298.935 343.544 298.929 343.464C298.906 343.158 298.948 342.934 298.981 342.637C299.376 339.04 298.439 335.152 299.286 331.607C299.36 337.931 300.178 350.307 299.179 355.992L297.442 356.07C296.868 346.126 297.574 333.642 297.692 323.501Z"/>
	<path fill="#30F191" fill-opacity="0.98431373" d="M243.121 356.095C243.383 354.631 243.878 353.352 244.553 352.031C247.301 346.648 250.67 341.512 253.628 336.234C256.376 331.333 266.71 311.199 269.359 308.567C268.399 312.208 261.655 323.593 259.538 327.673C254.652 337.088 250.44 346.829 245.011 355.944L243.121 356.095Z"/>
	<path fill="#30F191" d="M330.24 305.404C332.997 309.248 335.073 314.09 337.273 318.298Q345.547 334.358 353.478 350.591C354.428 352.352 355.437 354.08 355.966 356.025L353.83 356.002C353.393 355.251 353.067 354.423 352.712 353.63C348.03 343.049 342.951 332.534 337.93 322.107C335.308 316.663 331.642 311.311 330.24 305.404Z"/>
	<path fill="#45B987" d="M121.893 312.021C127.079 312.644 132.509 312.33 137.734 312.343C147.985 312.369 158.475 312.352 168.663 313.505C160.669 314.489 151.126 313.952 142.997 314.007L123.687 314.087C120.696 314.085 117.604 314.243 114.622 314.057C111.236 313.193 107.312 314.563 104.059 313.174C103.677 313.011 103.876 313.082 103.49 312.954C102.978 312.784 102.7 312.683 102.316 312.271C107.966 312.191 113.676 312.748 119.309 312.111L121.893 312.021Z"/>
	<path fill="#30F191" d="M533.523 274.149C535.674 273.962 537.676 272.823 539.76 272.72L539.833 273.243C541.071 275.407 540.463 283.956 539.773 286.474C539.67 286.852 539.521 287.142 539.309 287.467C538.739 288.647 537.017 289.352 535.834 289.752C535.034 290.022 534.206 290.178 533.361 290.187C533.597 289.965 533.73 289.797 533.855 289.491C534.461 287.996 534.173 280.914 533.604 279.442C533.743 279.201 533.865 278.986 533.938 278.715C534.306 277.333 534.19 275.409 533.523 274.149Z"/>
	<path fill="#93F2BC" d="M463.375 326.215C463.303 327.429 461.852 327.692 461.764 329.055C462.087 329.228 462.317 329.311 462.69 329.32C464.926 329.376 469.565 328.256 471.131 326.555C471.499 326.156 471.359 325.997 471.335 325.487C471.412 325.507 471.488 325.528 471.565 325.546C474.999 326.358 479.828 324.97 482.601 327.619L482.625 328.23C480.69 330.232 474.996 330.29 472.208 330.336C469.029 330.389 465.917 329.981 462.753 329.809C460.237 329.672 457.892 329.949 455.381 329.416C453.071 328.925 450.855 327.97 448.736 326.944C449.308 326.598 449.551 326.291 449.904 325.728C454.137 325.974 459.35 325.071 463.375 326.215Z"/>
	<path fill="#30F191" d="M413.403 317.307C413.763 317.381 414.119 317.468 414.477 317.55C419.633 318.733 424.958 321.334 429.924 323.273Q447.585 330.214 465.146 337.402C474.986 341.371 484.89 345.107 494.669 349.238C497.962 350.629 501.983 351.906 504.923 353.884C505.54 354.312 505.743 354.334 505.963 355.074C505.312 355.694 504.592 355.66 503.746 355.724C503.094 355.702 502.451 355.547 501.811 355.425L501.952 355.149L501.801 354.707C493.962 350.199 484.914 347.089 476.598 343.547C455.61 334.607 434.359 326.303 413.403 317.307Z"/>
	<path fill="#30F191" d="M412.286 355.726C412.227 355.471 412.207 355.203 412.108 354.961C411.698 353.955 405.589 348.818 404.375 347.687C399.753 343.381 395.536 338.69 390.953 334.373C387.852 331.453 384.635 328.647 381.441 325.83C377.172 322.066 364.519 311.98 362.27 308.041C367.895 312.358 416.025 352.749 416.732 355.619C416.747 355.679 416.746 355.742 416.753 355.804C415.623 356.369 413.512 355.925 412.286 355.726Z"/>
	<path fill="#0F2320" d="M451.721 299.162C452.756 299.569 453.037 299.818 453.522 300.875C454.408 302.808 457.823 310.774 457.192 312.604C456.066 317.025 452.565 322.009 449.904 325.728C449.551 326.291 449.308 326.598 448.736 326.944C447.389 324.786 443.369 324.488 442.406 322.092C442.11 321.354 442.199 320.996 442.456 320.274L443.186 320.076C444.048 320.288 444.529 320.488 445.162 321.118L445.935 321.684C446.347 321.685 446.421 321.757 446.772 321.487C448.176 320.406 450.378 309.904 450.709 307.639C450.885 306.437 451.037 305.773 450.304 304.774C450.741 304.603 451.107 304.337 451.329 303.914C451.994 302.647 452.155 300.509 451.721 299.162Z"/>
	<path fill="#2BB46D" d="M82.5443 312.337C82.585 309.286 81.864 304.729 84.2328 302.426C84.9029 301.774 85.7487 301.427 86.6859 301.464C88.4959 301.535 90.4186 302.815 91.5789 304.157C92.5151 305.24 93.0247 306.597 93.5508 307.909C94.6951 306.626 95.9492 304.889 97.7755 304.672C98.2152 304.62 98.5405 304.747 98.944 304.901C99.7607 305.651 100.039 306.493 100.088 307.598C100.152 309.06 99.6292 310.676 99.1983 312.064C100.222 312.077 101.326 311.996 102.316 312.271C102.7 312.683 102.978 312.784 103.49 312.954C103.876 313.082 103.677 313.011 104.059 313.174C107.312 314.563 111.236 313.193 114.622 314.057C103.805 314.172 92.9878 313.932 82.1709 314.036Q78.9108 314.063 75.6514 313.994L75.994 312.427Q79.2696 312.415 82.5443 312.337Z"/>
	<path fill="#0F2320" d="M59.4264 82.0086C59.7277 73.6507 58.6069 64.9132 59.6835 56.633C59.6919 58.0468 59.4895 59.6877 60.0796 60.9883L61.018 61.6938C60.9784 68.4304 61.3868 75.1819 60.8274 81.9012C62.3565 82.1823 64.2463 82.7628 65.3424 83.9158L65.4875 84.4323C64.6864 85.4293 64.235 85.8768 64.3437 87.2439C64.5769 90.1788 66.7246 93.1361 68.5621 95.2889C66.6823 95.7622 64.918 96.1676 62.9699 96.2513C63.9671 98.0502 65.1257 100.03 64.5762 102.155C64.317 103.157 63.7363 103.95 62.8356 104.469C61.8483 105.037 60.5681 105.196 59.4713 104.889C58.3289 104.569 57.431 103.871 56.9117 102.799C55.8262 100.556 56.7529 98.2336 57.4804 96.0495C55.5903 96.0247 53.6993 95.96 51.8095 95.9128C53.132 94.2669 54.7144 92.5276 55.5778 90.5927C56.6961 88.0867 56.2206 86.1545 55.2734 83.6923C56.6075 83.0444 57.9593 82.2876 59.4264 82.0086ZM59.084 96.1256C59.2747 98.0043 59.2111 99.9235 60.736 101.269L61.3553 101.244C62.4937 99.8053 62.0543 98.0473 61.887 96.3516C60.9267 96.1513 60.0563 96.1171 59.084 96.1256Z"/>
	<path fill="#30F191" d="M192.358 305.628C196.549 305.052 200.849 305.202 205.073 305.199L222.7 305.204L280.867 305.165L392.288 305.189L422.473 305.203C428.429 305.19 434.428 305.025 440.378 305.236C439.181 306.071 435.317 305.298 435.207 305.777L435.629 305.971L398.786 306.026C389.839 306.122 380.903 306.485 371.954 306.46L340.963 306.422C326.965 306.3 313.078 305.985 299.073 306.238C299.275 314.689 299.186 323.152 299.286 331.607C298.439 335.152 299.376 339.04 298.981 342.637C298.948 342.934 298.906 343.158 298.929 343.464C298.935 343.544 298.947 343.625 298.956 343.705C297.605 341.879 298.778 325.16 297.692 323.501Q297.483 314.871 297.98 306.252L228.8 306.304L206.563 306.075C201.86 306.018 197.027 306.203 192.358 305.628Z"/>
	<path fill="#2BB46D" d="M514.649 354.166C514.686 354.081 514.725 353.997 514.76 353.911C516.214 350.307 513.26 342.162 517.498 340.178C518.586 339.669 519.803 339.832 520.89 340.251C522.866 341.012 524.577 342.917 525.377 344.847C525.922 346.163 526.267 347.615 525.843 349.008C528.188 346.664 531.115 341.981 534.739 341.866C535.516 341.841 536.225 342.11 536.772 342.666C538.272 344.188 538.332 347.257 538.22 349.238C538.11 351.191 537.787 353.793 536.638 355.427C534.814 356.755 507.397 356.378 503.984 355.776C503.904 355.762 503.826 355.741 503.746 355.724C504.592 355.66 505.312 355.694 505.963 355.074C505.743 354.334 505.54 354.312 504.923 353.884L505.886 353.409L505.878 353.166C505.849 352.018 505.805 350.65 506.625 349.739C507.147 349.159 507.879 348.883 508.652 348.916C510.607 348.999 512.382 350.369 513.591 351.814C514.177 352.515 514.637 353.219 514.649 354.166Z"/>
	<path fill="#2BB46D" d="M512.88 305.405L512.977 305.131C514.291 301.312 513.66 295.056 517.852 292.8C518.557 292.42 519.368 292.306 520.137 292.555C522.072 293.182 523.336 295.457 524.109 297.201C524.994 299.2 526.201 302.539 525.369 304.7C525.332 304.796 525.293 304.891 525.255 304.986C525.331 304.936 525.409 304.889 525.484 304.837C528.899 302.493 532.16 294.831 536.972 295.73C537.791 295.883 538.399 296.37 538.818 297.081C540.604 300.114 539.048 306.426 538.064 309.54C537.792 310.404 537.336 311.076 536.772 311.776C536.852 311.745 536.932 311.715 537.011 311.682C539.41 310.667 542.687 306.692 545.393 307.605C546.016 308.6 546.001 309.835 545.741 310.979C545.641 311.419 545.556 311.776 545.304 312.156C547.892 312.045 549.963 312.01 552.468 312.786L552.809 313.17C551.518 313.98 549.491 313.991 548.013 314.057C538.616 314.475 529.188 313.805 519.788 313.818C510.456 313.83 498.992 314.575 490.032 313.749L491.269 313.482L491.543 312.924C494.947 312.819 498.372 312.635 501.777 312.702C501.836 312.598 501.899 312.495 501.955 312.388C503.476 309.459 500.35 304.737 504.964 303.058C506.821 302.382 509.067 302.822 510.794 303.68C511.613 304.087 512.339 304.667 512.88 305.405Z"/>
	<path fill="#2BB46D" d="M133.426 350.303C138.739 346.766 144.409 344.077 150.108 341.233L166.591 332.858L184.297 323.677C188.057 321.756 191.804 319.689 195.788 318.267C195.685 318.334 195.575 318.393 195.479 318.469C195.391 318.538 195.319 318.624 195.238 318.7C193.276 320.531 171.897 331.006 167.57 333.265L147.931 343.596C143.126 346.163 138.348 348.907 133.37 351.124L131.559 354.077C133.967 353.076 138.65 349.395 141.185 350.477Q141.4 350.569 141.592 350.702Q141.784 350.835 141.945 351.004Q142.106 351.173 142.231 351.37Q142.355 351.568 142.437 351.787C142.719 352.53 142.821 353.41 142.957 354.192C144.6 353.714 147.287 352.518 148.9 353.397C149.869 353.925 150.135 354.915 150.454 355.89C148.229 356.127 145.795 355.928 143.55 355.922L129.818 355.935L105.007 355.996C100.592 355.987 96.0902 356.188 91.6938 355.856C90.4445 352.868 89.0005 348.371 90.2205 345.2C90.6635 344.048 91.4932 343.142 92.6347 342.656C94.4035 341.904 96.392 342.299 98.086 343.049C100.43 344.086 102.57 345.848 104.251 347.765C103.405 343.049 102.839 336.764 105.692 332.632C106.513 331.444 107.693 330.509 109.153 330.298C110.839 330.055 112.449 330.733 113.734 331.782C117.601 334.941 118.939 340.993 120.11 345.626C122.033 341.856 126.081 336.528 130.238 335.076C131.137 334.762 132.143 334.658 133.027 335.084C134.027 335.565 134.592 336.565 134.896 337.589C136.03 341.413 134.337 346.504 133.426 350.303Z"/>
	<path fill="#0F2320" d="M150.454 355.89C156.858 356.166 174.939 357.06 180.02 354.898C182.812 353.71 184.821 351.065 187.572 349.638C185.539 352.355 183.426 354.105 180.471 355.741C194.711 356.057 208.943 355.983 223.187 355.98C229.511 355.979 236.918 355.422 243.121 356.095L245.011 355.944Q262.705 356.07 280.399 355.984C286.064 355.979 291.783 355.81 297.442 356.07L299.179 355.992L353.83 356.002L355.966 356.025C360.935 355.819 365.974 355.991 370.95 355.993L398.915 355.981C402.154 355.977 409.67 356.527 412.286 355.726C413.512 355.925 415.623 356.369 416.753 355.804C419.658 356.397 423.222 356.047 426.209 356.044L443.736 356.01L477.412 356.021C485.527 356.021 493.725 356.19 501.811 355.425C502.451 355.547 503.094 355.702 503.746 355.724C503.826 355.741 503.904 355.762 503.984 355.776C507.397 356.378 534.814 356.755 536.638 355.427C541.842 355.386 557.402 354.379 561.124 356.755C561.272 357.201 561.393 357.217 561.154 357.667C560.673 358.575 559.275 359.008 558.325 359.218C553.618 360.261 546.551 359.638 541.591 359.616L510.983 359.436L426.304 359.604L186.662 359.636L113.535 359.565C99.6475 359.612 85.6771 360.098 71.7985 359.807C70.0156 359.77 66.7041 359.94 65.1795 358.993C64.7664 358.736 64.4473 358.335 64.1491 357.958C64.1133 357.587 63.9966 357.417 64.2455 357.11C65.1765 355.959 68.8141 355.921 70.1839 355.894C73.0477 355.838 75.9125 356.034 78.7821 355.987C83.0611 355.918 87.4315 355.552 91.6938 355.856C96.0902 356.188 100.592 355.987 105.007 355.996L129.818 355.935L143.55 355.922C145.795 355.928 148.229 356.127 150.454 355.89Z"/>
	<path fill="#0F2320" d="M280.249 147.722C283.868 140.839 288.592 134.737 296.303 132.338C303.428 130.12 312.195 130.897 318.783 134.371C323.801 137.017 326.086 140.405 328.996 145.042C329.54 145.909 330.197 147.311 330.921 147.994C336.837 151.858 348.443 166.605 352.312 168.336C359.495 155.671 368.083 143.786 375.797 131.44C382.122 131.456 388.872 130.811 395.102 131.966L395.319 135.027C397.882 137.217 400.038 140.063 402.327 142.545L415.48 156.556C423.072 164.594 471.613 213.661 472.405 218.161C474.778 218.086 477.418 214.778 479.434 213.43C481.147 212.284 483.082 211.371 485.074 210.838C488.923 209.807 493.049 210.155 496.984 210.303C498.332 209.267 499.509 207.011 500.363 205.537C503.725 199.733 506.687 195.09 512.458 191.269C518.35 187.368 525.956 185.258 533.045 186.137C534.8 186.355 536.526 186.901 538.26 187.252L538.374 186.779C538.45 186.88 538.521 186.984 538.6 187.082C539.267 187.914 540.909 188.387 541.852 188.961Q545.346 191.042 548.418 193.708C559.777 203.578 563.651 220.923 562.815 235.352C562.121 247.348 557.978 258.684 548.812 266.782C547.001 268.381 545.03 269.749 542.968 271.001C542.181 271.479 541.059 271.859 540.374 272.443C540.09 272.685 539.992 272.912 539.833 273.243L539.76 272.72C537.676 272.823 535.674 273.962 533.523 274.149C534.19 275.409 534.306 277.333 533.938 278.715C533.865 278.986 533.743 279.201 533.604 279.442C534.173 280.914 534.461 287.996 533.855 289.491C533.73 289.797 533.597 289.965 533.361 290.187C531.999 290.842 529.777 290.546 528.259 290.478C526.293 290.824 523.973 290.699 521.964 290.755C514.135 290.974 506.265 290.695 498.437 290.488C496.15 290.598 493.841 290.78 491.554 290.812C492.338 294.625 492.55 309.601 491.543 312.924L491.269 313.482L490.032 313.749C482.872 314.083 475.693 313.905 468.527 313.997C470.441 315.789 471.805 320.593 471.921 323.148C471.962 324.051 471.767 324.7 471.335 325.487C471.359 325.997 471.499 326.156 471.131 326.555C469.565 328.256 464.926 329.376 462.69 329.32C462.317 329.311 462.087 329.228 461.764 329.055C461.852 327.692 463.303 327.429 463.375 326.215C459.35 325.071 454.137 325.974 449.904 325.728C452.565 322.009 456.066 317.025 457.192 312.604C457.823 310.774 454.408 302.808 453.522 300.875C453.037 299.818 452.756 299.569 451.721 299.162C452.267 297.588 451.83 295.136 451.634 293.486C451.489 292.262 451.535 291.577 450.549 290.798C440.603 291.194 430.526 290.773 420.566 290.769L360.089 290.785L203.897 290.777C176.522 290.775 149.097 290.429 121.729 290.833C121.736 297.874 121.548 304.989 121.893 312.021L119.309 312.111C119.035 305.036 119.228 297.887 119.253 290.804C107.383 290.58 95.4957 290.934 83.6279 290.59L80.9564 287.672C79.3998 288.406 77.6291 288.628 75.9484 288.944C75.4982 289.675 75.7845 310.255 75.994 312.427L75.6514 313.994C74.8421 314.081 73.5367 314.295 72.7561 314.036C70.0145 313.127 73.0594 291.41 71.7035 288.918Q69.1024 288.738 66.5195 288.382Q65.4028 288.225 64.2952 288.013Q63.1876 287.802 62.0918 287.536Q60.9959 287.27 59.9144 286.951Q58.8329 286.632 57.7684 286.259Q56.7039 285.887 55.6589 285.463Q54.614 285.04 53.5911 284.565Q52.5682 284.09 51.5699 283.566Q50.5716 283.041 49.6002 282.468Q48.6288 281.895 47.6868 281.276Q46.7447 280.656 45.8342 279.99Q44.9237 279.325 44.047 278.616Q43.1703 277.906 42.3294 277.155Q41.4886 276.403 40.6857 275.611Q39.8828 274.819 39.1197 273.989Q38.3567 273.158 37.6354 272.291Q36.914 271.424 36.2361 270.523Q35.5028 269.541 34.8187 268.525Q34.1346 267.508 33.5014 266.46Q32.8682 265.411 32.2874 264.332Q31.7066 263.253 31.1797 262.147Q30.6527 261.04 30.1809 259.91Q29.7091 258.779 29.2935 257.626Q28.8779 256.473 28.5195 255.302Q28.1612 254.13 27.861 252.942Q27.5608 251.754 27.3195 250.553Q27.0781 249.351 26.8962 248.14Q26.7144 246.928 26.5924 245.709Q26.4704 244.489 26.4085 243.266Q26.3467 242.042 26.3452 240.816Q26.3437 239.591 26.4026 238.367Q26.4614 237.143 26.5805 235.924Q26.6995 234.704 26.8785 233.492Q27.0391 232.403 27.2534 231.324Q27.4678 230.244 27.7353 229.177Q28.0028 228.11 28.3229 227.057Q28.643 226.004 29.0148 224.968Q29.3866 223.932 29.8092 222.916Q30.2319 221.9 30.7043 220.906Q31.1768 219.912 31.6979 218.943Q32.2189 217.974 32.7874 217.032Q33.3559 216.089 33.9703 215.176Q34.5847 214.263 35.2435 213.382Q35.9024 212.501 36.6041 211.653Q37.3058 210.806 38.0487 209.994Q38.7915 209.182 39.5736 208.408Q40.3557 207.634 41.1752 206.9Q41.9947 206.165 42.8495 205.472Q43.7044 204.78 44.5925 204.13C55.3554 196.191 69.9925 193.704 83.0404 195.693C93.0902 198.512 99.2268 202.925 106.983 209.658C112.618 206.889 118.043 204.603 124.333 206.743C134.109 210.071 142.345 219.793 146.729 228.866C147.827 231.14 148.78 233.518 149.369 235.978C149.996 238.603 151.155 250.511 152.191 251.652C158.171 246.943 163.224 240.812 168.529 235.371C175.26 228.467 182.238 221.806 189.026 214.958C191.222 212.742 195.445 207.561 197.854 206.409C203.497 205.758 209.153 206.027 214.819 206.125Q224.369 206.36 233.915 206.015C233.389 210.565 233.711 215.409 233.744 219.99C239.124 220.59 244.814 220.31 250.238 220.35C250.418 215.577 250.294 210.753 250.299 205.973L263.001 206.041L262.977 191.297C258.727 191.234 254.47 191.266 250.219 191.254C249.864 186.654 249.374 180.552 250.501 176.103C255.038 172.029 277.203 148.189 280.249 147.722ZM469.796 290.774C468.569 290.998 467.402 290.962 466.162 290.924C465.39 294.748 465.564 298.922 466.137 302.768C466.458 304.927 468.681 311.853 468.358 313.157C474.783 313.163 481.264 313.314 487.681 312.962C489.028 310.986 488.724 295.272 488.182 292.165C488.124 291.832 488.026 291.581 487.9 291.269L486.969 290.966C483.228 290.181 474.258 290.87 469.796 290.774ZM457.192 312.604C456.066 317.025 452.565 322.009 449.904 325.728C454.137 325.974 459.35 325.071 463.375 326.215C463.84 326.158 464.302 326.073 464.765 325.997L465.043 325.54C465.026 325.312 465.001 325.072 464.939 324.85C464.501 323.262 458.391 313.262 457.192 312.604Z"/>
	<path fill="#FEFEFE" d="M445.521 284.915C446.422 283.76 446.475 281.106 448.001 280.621C448.31 281.868 447.755 283.621 447.509 284.889L447.815 284.586C447.765 284.674 447.71 284.761 447.663 284.852C447.499 285.169 447.474 285.271 447.502 285.611C446.378 285.788 445.198 285.866 444.281 286.603C443.698 287.56 443.586 288.661 443.388 289.748C442.777 289.885 442.463 289.809 441.929 289.43C440.754 288.594 439.763 287.107 439.261 285.782C439.854 285.696 440.442 285.605 441.031 285.493C442.417 285.407 444.232 285.47 445.521 284.915Z"/>
	<path fill="#FEFEFE" d="M304.68 243.081C306.977 242.928 311.008 242.628 312.987 243.851L313.037 244.374C312.327 245.162 311.564 245.282 310.578 245.535C310.425 248.413 310.447 251.259 310.52 254.14C310.527 254.361 310.537 254.443 310.5 254.683C310.397 255.365 310.266 255.553 309.709 255.927C309.266 255.867 309.06 255.921 308.716 255.607C307.184 254.213 308.068 247.853 308.047 245.646C307.304 245.395 306.376 245.194 305.691 244.815C304.96 244.411 304.888 243.809 304.68 243.081Z"/>
	<path fill="#FEFEFE" d="M320.697 243.023C322.286 242.971 325.127 242.587 326.492 243.424C326.939 243.698 326.864 243.833 326.999 244.305C326.4 245.009 325.304 244.981 324.44 245.314C323.846 245.543 323.259 245.936 323.057 246.574C322.163 249.396 326.144 248.36 327.088 250.103C326.398 250.692 325.458 250.749 324.59 250.913C324.495 250.923 324.399 250.927 324.305 250.944C321.709 251.408 323.512 254.665 322.472 256.219L322.034 256.29C321.838 256.159 321.741 256.111 321.583 255.957C319.826 254.251 320.651 245.711 320.697 243.023Z"/>
	<path fill="#FEFEFE" d="M467.978 272.437C468.507 272.957 469.081 273.501 469.421 274.168C470.717 276.711 471.579 283.105 470.616 285.823C472.029 285.491 473.744 284.988 474.789 283.948L475.466 284.382C475.642 285.222 475.597 285.733 475.105 286.46C474.835 286.86 474.601 287.082 474.14 287.255C474.282 288.087 474.389 288.253 473.872 288.979C473.39 289.657 472.431 290.105 471.615 290.206C471.289 290.247 470.959 290.251 470.631 290.252L469.796 290.774C468.569 290.998 467.402 290.962 466.162 290.924C466.307 290.015 466.418 289.041 466.678 288.16C466.891 287.438 467.249 287.181 467.888 286.864L469.1 287.394L469.467 287.115C470.077 284.372 469.375 274.798 467.978 272.437Z"/>
	<path fill="#0F2320" d="M470.631 290.252C470.605 290.173 470.572 290.095 470.554 290.014Q470.484 289.706 470.479 289.391Q470.473 289.076 470.531 288.766Q470.588 288.456 470.708 288.164Q470.827 287.872 471.003 287.61C471.503 286.86 472.032 286.469 472.905 286.285C473.684 286.534 473.689 286.62 474.14 287.255C474.282 288.087 474.389 288.253 473.872 288.979C473.39 289.657 472.431 290.105 471.615 290.206C471.289 290.247 470.959 290.251 470.631 290.252Z"/>
	<path fill="#FEFEFE" d="M267.375 243.008C269.249 242.979 272.528 242.574 274 243.812L274.028 244.472C273.234 245.402 271.745 245.287 270.712 245.885C270.235 246.161 269.978 246.487 269.936 247.046C269.873 247.867 270.014 248.125 270.582 248.672C271.417 248.821 272.105 248.957 272.86 249.351L272.985 249.948C272.385 250.786 271.75 250.667 270.916 251.056C270.041 251.465 269.871 252.454 269.56 253.284C270.654 254.282 272.681 254.181 274.083 254.857L274.031 255.41C272.098 256.241 269.224 256.023 267.137 256.048C267.055 251.728 267.094 247.32 267.375 243.008Z"/>
	<path fill="#93F2BC" d="M439.261 285.782C440.249 283.746 440.134 280.524 440.375 278.265C441.139 271.101 442.95 260.954 448.001 255.503C449.102 254.315 451.713 252.167 453.43 252.242C453.87 252.262 453.84 252.358 454.119 252.653C453.819 253.236 449.937 255.93 448.709 257.628C444.106 263.989 442.181 273.279 441.297 280.925C441.154 282.16 440.729 283.969 440.963 285.181C440.983 285.286 441.008 285.389 441.031 285.493C440.442 285.605 439.854 285.696 439.261 285.782Z"/>
	<path fill="#FEFEFE" d="M259.176 243.057C259.305 243.041 259.434 243.022 259.564 243.007C260.74 242.874 262.11 242.908 263.053 243.725C263.508 244.119 263.504 244.223 263.539 244.784L262.959 245.382C261.726 245.991 260.077 245.614 258.749 245.472C258.242 247.407 257.356 251.484 258.56 253.282C258.815 253.662 259.108 253.869 259.555 253.964C260.211 254.103 261.324 253.799 261.846 253.39C263.184 252.341 260.404 250.754 260.547 249.487L261.614 248.754C262.26 248.853 262.944 248.917 263.399 249.44C264.713 250.951 264.044 254.084 263.86 255.935C262.746 256.057 261.509 256.203 260.393 256.081C258.872 255.914 257.304 255.037 256.351 253.84C255.259 252.47 254.894 250.669 255.148 248.958C255.547 246.265 257.08 244.626 259.176 243.057Z"/>
	<path fill="#FEFEFE" d="M341.867 242.73C342.169 242.791 342.481 242.855 342.765 242.977C345.264 244.045 343.63 250.898 344.46 253.177C345.074 253.829 345.152 253.831 346.04 253.985C349.544 252.311 346.144 245.908 347.932 243.509C348.318 242.991 348.459 243.031 349.063 242.936C349.839 243.479 349.736 243.539 349.894 244.426Q349.96 249.057 349.802 253.685C349.436 254.29 349.04 254.908 348.527 255.401C347.738 256.159 346.629 256.278 345.581 256.251C344.598 256.226 343.771 255.976 343.099 255.23C340.645 252.504 341.658 246.087 341.867 242.73Z"/>
	<path fill="#FEFEFE" d="M234.586 243.258C235.874 243.242 237.527 243.081 238.742 243.513C240.108 243.999 241.577 244.924 242.184 246.284C242.571 247.151 242.517 248.035 242.106 248.886C241.255 250.645 239.426 251.318 237.722 251.953L237.379 252.104C236.751 253.186 237.124 254.476 236.8 255.707L236.225 255.968C235.785 255.868 235.431 255.874 235.11 255.533C233.936 254.287 234.545 245.323 234.586 243.258Z"/>
	<path fill="#0F2320" d="M237.11 244.862C237.177 244.885 237.246 244.905 237.311 244.932C238.219 245.314 239.054 245.895 239.475 246.796C239.648 247.825 239.279 248.419 238.812 249.29C238.065 249.506 237.989 249.637 237.264 249.283C236.581 247.917 236.933 246.323 237.11 244.862Z"/>
	<path fill="#FEFEFE" d="M247.074 242.917C248.005 242.986 248.777 243.059 249.65 243.435C250.277 244.188 250.597 244.994 250.923 245.908C251.772 248.282 253.417 253.319 252.324 255.608L251.778 255.709C250.752 255.054 250.285 253.755 249.76 252.698C247.084 253.038 246.46 255.832 244.256 256.098C243.406 254.334 246.388 245.294 247.074 242.917Z"/>
	<path fill="#93F2BC" d="M450.549 290.798C450.572 290.74 450.597 290.683 450.618 290.624C451.176 289.053 450.098 286.437 451.304 285.195L451.803 285.43C453.052 289.07 453.275 293.076 454.153 296.818C455.44 302.305 457.595 307.309 459.708 312.52C460.927 315.527 466.832 323.424 466.257 325.387C465.718 325.638 465.638 325.621 465.043 325.54C465.026 325.312 465.001 325.072 464.939 324.85C464.501 323.262 458.391 313.262 457.192 312.604C457.823 310.774 454.408 302.808 453.522 300.875C453.037 299.818 452.756 299.569 451.721 299.162C452.267 297.588 451.83 295.136 451.634 293.486C451.489 292.262 451.535 291.577 450.549 290.798Z"/>
	<path fill="#FEFEFE" d="M353.587 242.775C354.151 242.864 354.764 242.942 355.294 243.165C358.035 244.317 358.947 249.045 359.899 251.522C359.709 248.992 359.088 245.677 360.231 243.31C360.351 243.062 360.525 243.082 360.774 242.996C360.861 243.085 360.951 243.171 361.033 243.265C363.035 245.554 362.214 251.672 361.98 254.589C361.803 255.448 361.806 255.706 361.199 256.371L360.667 256.272C358.15 254.359 357 250.899 355.958 248.027C356.015 249.921 356.121 251.849 356.023 253.741C355.978 254.622 355.888 255.512 355.225 256.119L354.815 255.953C352.702 253.256 353.569 246.228 353.587 242.775Z"/>
	<path fill="#FEFEFE" d="M282.304 242.905C282.984 242.925 283.719 242.925 284.33 243.264C287.142 244.825 288.128 249.642 289.022 252.453C288.784 249.372 288.355 246.204 289.28 243.197L289.982 242.902L289.237 243.492L290.108 243.077C291.97 246.136 291.119 252.285 290.905 255.789C290.186 256.084 290.045 256.079 289.312 255.989C286.81 254.443 285.844 250.31 284.942 247.671C284.989 250.037 285.372 253.044 284.303 255.232C284.043 255.766 283.963 255.827 283.419 256.018C283.223 255.858 283.129 255.799 282.975 255.617C280.861 253.119 282.06 246.067 282.304 242.905Z"/>
	<path fill="#FEFEFE" d="M332.997 243.012C333.526 242.985 334.058 242.966 334.583 243.059C335.951 243.302 337.04 244.081 337.801 245.235C339.009 247.066 339.138 249.586 338.617 251.666C338.092 253.757 337.11 255.15 335.258 256.259C334.82 256.278 334.377 256.295 333.94 256.256C332.576 256.134 331.406 255.396 330.601 254.301C329.416 252.691 329.173 250.442 329.487 248.512C329.894 246.012 330.958 244.472 332.997 243.012Z"/>
	<path fill="#0F2320" d="M333.105 244.899C333.476 244.959 333.866 245.022 334.217 245.163C334.983 245.472 335.604 246.13 335.914 246.888C336.855 249.192 335.958 252.065 335.08 254.251C334.834 254.211 334.605 254.17 334.366 254.098C333.425 253.811 332.756 253.303 332.334 252.396C331.294 250.162 332.404 247.075 333.105 244.899Z"/>
	<path fill="#FEFEFE" d="M297.127 243.018C297.833 242.979 298.546 242.947 299.248 243.056C300.511 243.252 301.432 243.987 302.143 245.027C303.432 246.909 303.619 249.5 303.129 251.677C302.649 253.807 301.74 254.98 299.922 256.156C299.482 256.173 299.059 256.173 298.621 256.128C297.161 255.98 296.092 255.428 295.175 254.264C294.016 252.792 293.676 250.767 293.868 248.94C294.142 246.34 295.127 244.657 297.127 243.018Z"/>
	<path fill="#0F2320" d="M298.227 244.933C298.728 245.088 299.229 245.262 299.6 245.652C300.68 246.787 300.928 248.744 300.789 250.25C300.653 251.728 300.353 253.424 299.168 254.422C298.922 254.305 298.68 254.185 298.447 254.045C297.439 253.436 296.844 252.302 296.596 251.176C296.1 248.927 297.044 246.781 298.227 244.933Z"/>
	<path fill="#FEFEFE" d="M365.478 242.984C367.058 242.97 368.861 242.831 370.389 243.272C371.862 243.698 373.137 244.535 373.797 245.963C375.054 248.682 373.886 252.225 372.953 254.846C370.507 256.07 368.148 256.01 365.483 256.044L365.478 242.984Z"/>
	<path fill="#0F2320" d="M368.08 244.902C369.431 245.38 370.745 245.847 371.482 247.18C372.571 249.152 371.66 251.58 371.025 253.539C370.771 253.666 370.478 253.835 370.195 253.898C369.405 254.074 369.105 253.875 368.465 253.482C367.011 251.377 367.824 247.352 368.08 244.902Z"/>
	<path fill="#2BB46D" d="M464.342 251.345C465.155 251.641 466.018 251.952 466.722 252.464C471.117 255.663 485.881 271.249 488.131 275.997C488.664 277.122 488.936 278.576 488.493 279.767C488.213 280.522 487.738 280.957 487.12 281.442C487.832 282.024 488.352 282.261 488.497 283.224C488.838 285.482 488.753 288.397 488.059 290.555C487.677 290.78 487.407 290.893 486.969 290.966C483.228 290.181 474.258 290.87 469.796 290.774L470.631 290.252C470.959 290.251 471.289 290.247 471.615 290.206C472.431 290.105 473.39 289.657 473.872 288.979C474.389 288.253 474.282 288.087 474.14 287.255C474.601 287.082 474.835 286.86 475.105 286.46C475.597 285.733 475.642 285.222 475.466 284.382L474.789 283.948C475.962 282.741 475.866 280.85 475.837 279.262C475.699 271.749 471.292 257.815 465.744 252.513C465.303 252.092 464.826 251.714 464.342 251.345Z"/>
	<path fill="#FEFEFE" d="M375.797 131.44C382.122 131.456 388.872 130.811 395.102 131.966L395.319 135.027L395.203 191.278C399.53 191.244 404.317 190.828 408.588 191.504C409.748 193.526 409.591 202.148 408.935 204.47C408.837 204.816 408.677 205.069 408.468 205.356Q401.765 205.423 395.063 205.572L395.043 220.63Q387.108 220.633 379.173 220.519C378.83 215.659 378.94 210.758 378.957 205.888L338.851 205.918C338.656 201.836 338.305 197.652 338.729 193.579C339.719 184.071 347.764 176.378 352.312 168.336C359.495 155.671 368.083 143.786 375.797 131.44Z"/>
	<path fill="#30F191" d="M379.18 172.817C379.04 179.039 379.268 185.275 379.09 191.516C375.892 191.538 372.609 191.705 369.428 191.372L367.335 188.638C369.554 185.824 379.003 175.584 379.18 172.817Z"/>
	<path fill="#0F2320" d="M379.621 151.676C378.952 158.644 379.2 165.815 379.18 172.817C379.003 175.584 369.554 185.824 367.335 188.638L369.428 191.372C364.448 191.517 359.44 191.581 354.465 191.304C355.883 188.941 357.625 186.701 359.184 184.425Q363.214 178.478 367.139 172.46C371.568 165.693 375.496 158.629 379.621 151.676Z"/>
	<path fill="#FEFEFE" d="M280.249 147.722C283.868 140.839 288.592 134.737 296.303 132.338C303.428 130.12 312.195 130.897 318.783 134.371C323.801 137.017 326.086 140.405 328.996 145.042C329.54 145.909 330.197 147.311 330.921 147.994C336.968 163.487 338.083 186.367 332.044 202.006C329.04 209.785 323.757 216.383 315.969 219.754C309.662 222.483 302.165 222.892 295.746 220.301C287.876 217.124 282.594 210.405 279.36 202.793C271.955 185.366 273.274 164.981 280.249 147.722Z"/>
	<path fill="#0F2320" d="M303.599 145.965C305.85 145.775 307.674 145.869 309.702 146.961C313.591 149.054 315.608 153.389 316.793 157.444C320.007 168.437 320.581 190.431 314.886 200.663C313.011 204.031 310.754 205.873 307.078 206.926C305.198 207.009 303.484 207.038 301.735 206.253C298.104 204.624 295.94 201.164 294.579 197.564C289.96 185.345 289.912 166.185 295.318 154.194C297.131 150.174 299.444 147.521 303.599 145.965Z"/>
	<path fill="#2BB46D" d="M496.984 210.303C498.332 209.267 499.509 207.011 500.363 205.537C503.725 199.733 506.687 195.09 512.458 191.269C518.35 187.368 525.956 185.258 533.045 186.137C534.8 186.355 536.526 186.901 538.26 187.252L538.374 186.779C538.45 186.88 538.521 186.984 538.6 187.082C539.267 187.914 540.909 188.387 541.852 188.961Q545.346 191.042 548.418 193.708C559.777 203.578 563.651 220.923 562.815 235.352C562.121 247.348 557.978 258.684 548.812 266.782C547.001 268.381 545.03 269.749 542.968 271.001C542.181 271.479 541.059 271.859 540.374 272.443C540.09 272.685 539.992 272.912 539.833 273.243L539.76 272.72C537.676 272.823 535.674 273.962 533.523 274.149C534.19 275.409 534.306 277.333 533.938 278.715C533.865 278.986 533.743 279.201 533.604 279.442C534.173 280.914 534.461 287.996 533.855 289.491C533.73 289.797 533.597 289.965 533.361 290.187C531.999 290.842 529.777 290.546 528.259 290.478C526.293 290.824 523.973 290.699 521.964 290.755C514.135 290.974 506.265 290.695 498.437 290.488C496.15 290.598 493.841 290.78 491.554 290.812C492.728 287.701 491.588 284.282 493.022 281.187C495.911 274.955 501.679 270.461 504.42 263.988C503.9 263.309 503.799 261.341 503.521 260.391C503.496 260.467 503.475 260.544 503.445 260.619C501.45 265.659 496.139 271.168 491.345 273.506C492.755 270.855 492.048 266.021 491.969 263.104C491.909 260.918 491.919 258.725 492.432 256.586C493.687 251.35 498.026 244.564 500.466 239.56C501.538 237.362 503.035 234.821 502.205 232.416C502.181 232.733 502.155 233.034 502.085 233.345C501.334 236.681 492.631 252.494 490.013 254.208C490.401 253.683 490.683 253.179 490.806 252.531C491.679 247.918 490.978 226.996 489.787 222.444C489.567 221.604 489.106 220.939 488.603 220.247C488.82 220.726 489.073 221.252 489.184 221.767C489.802 224.617 488.832 232.634 487.365 235.072C487.451 234.621 487.515 234.141 487.441 233.682C486.887 230.252 483.437 225.337 480.571 223.432Q480.708 223.589 480.839 223.751C483.689 227.262 486.722 232.517 487.928 236.868C489.37 242.072 489.15 260.466 488.547 266.416C488.454 267.334 488.375 268.805 487.65 269.405C482.794 265.142 478.148 260.828 472.999 256.896C473.763 253.116 473.177 245.607 471.969 241.921L471.811 242.317L472.077 242.419L471.802 242.555C471.811 246.773 472.721 251.28 471.856 255.45L471.793 255.742C471.788 255.726 471.787 255.708 471.779 255.694C470.481 253.469 467.617 251.749 465.419 250.551L465.418 250.747C465.587 250.522 465.749 250.297 465.89 250.053C467.156 247.869 466.996 244.454 466.385 242.08C465.846 239.986 464.536 237.535 462.548 236.488C460.071 235.183 456.407 234.892 453.768 235.829C451.289 236.709 450.587 239.086 449.533 241.267L449.15 241.363L448.736 240.323L448.311 240.299C448.007 240.795 447.713 241.22 447.332 241.659L446.655 241.532L446.504 241.131C446.7 240.355 447.018 239.815 447.479 239.174C449.323 236.611 452.053 234.543 455.228 234.062C457.433 233.727 460.712 234.117 462.519 235.448C464.925 233.347 466.393 227.857 468.159 224.916C469.178 223.22 470.524 221.97 471.731 220.443C472.415 219.577 472.518 219.204 472.405 218.161C474.778 218.086 477.418 214.778 479.434 213.43C481.147 212.284 483.082 211.371 485.074 210.838C488.923 209.807 493.049 210.155 496.984 210.303Z"/>
	<path fill="#020B08" d="M503.521 260.391C503.586 260.341 503.652 260.292 503.716 260.241C505.186 259.067 511.165 251.049 511.389 250.972C510.952 253.358 506.325 260.599 504.297 261.975C504.237 262.015 504.174 262.051 504.113 262.09C506.948 261.878 509.573 261.58 512.168 260.301C511.845 261.22 511.278 261.404 510.428 261.808C508.644 262.655 506.376 263.682 504.42 263.988C503.9 263.309 503.799 261.341 503.521 260.391Z"/>
	<path fill="#30F191" d="M520.801 270.268C522.301 270.723 523.933 271.628 525.285 272.427C526.24 272.991 527.667 273.63 527.94 274.697C529.332 276.523 528.772 287.572 528.374 289.986C528.333 290.23 528.317 290.27 528.259 290.478C526.293 290.824 523.973 290.699 521.964 290.755C514.135 290.974 506.265 290.695 498.437 290.488C498.646 290.351 498.867 290.217 499.067 290.066C502.422 287.531 506.845 286.753 510.757 283.618C513.589 281.348 520.411 273.9 520.801 270.268Z"/>
	<path fill="#0F2320" d="M531.389 195.611C532.919 200.212 532.081 208.251 532.248 213.261C532.383 217.304 534.066 229.819 532.455 233.035C532.361 233.223 532.255 233.405 532.155 233.589C532.114 233.663 532.078 233.739 532.039 233.813C532.118 233.764 532.199 233.717 532.277 233.667C538.109 229.922 539.872 216.433 543.529 211.634C543.189 215.861 538.9 225.44 536.956 229.612C535.582 232.56 533.903 235.394 533.406 238.659C532.643 243.68 534.604 255.999 532.401 259.604C532.33 259.719 532.264 259.836 532.191 259.95C532.144 260.024 532.092 260.094 532.042 260.167C532.855 259.699 533.505 259.21 534.083 258.461C536.885 254.828 539.086 250.547 541.623 246.708C544.51 242.34 547.708 238.228 550.823 234.026C552.597 231.633 554.231 229.139 556.071 226.795C555.021 230.172 548.334 241.924 545.656 244.025C549.551 243.578 553.618 243.135 557.382 241.971C555.578 244.146 547.704 245.695 544.953 246.151C544.774 248.071 536.243 260.471 534.908 264.243C533.11 269.322 534.564 276.817 533.604 279.442C534.173 280.914 534.461 287.996 533.855 289.491C533.73 289.797 533.597 289.965 533.361 290.187C531.999 290.842 529.777 290.546 528.259 290.478C528.317 290.27 528.333 290.23 528.374 289.986C528.772 287.572 529.332 276.523 527.94 274.697C529.218 273.265 529.11 267.457 529.003 265.431C528.691 259.499 523.269 252.137 518.873 248.317C516.303 246.082 513 244.923 509.761 244.048C512.17 244.193 515.523 244.62 517.34 246.369C517.675 242.299 508.879 235.65 508.173 231.516C509.422 232.344 513.36 236.711 513.653 238.178C513.674 238.282 513.687 238.386 513.704 238.49C515.161 236.319 515.64 230.907 515.072 228.385C515.051 228.291 515.025 228.198 515.002 228.104C516.621 230.371 515.944 235.246 515.5 237.898C515.39 238.556 515.234 239.171 514.971 239.784C517.23 241.404 528.261 252.414 528.689 254.855C528.711 254.982 528.723 255.11 528.74 255.238C529.283 254.288 529.483 253.495 529.547 252.408C529.871 246.909 529.375 241.349 529.387 235.842C529.396 231.381 530.458 219.393 529.558 216.02C529.487 215.754 529.399 215.51 529.31 215.252C527.67 210.543 524.222 206.627 522.379 202.002L522.568 201.912C524.567 204.268 529.789 211.917 529.686 214.887C531.83 211.489 531.244 199.975 531.389 195.611Z"/>
	<path fill="#2BB46D" d="M71.7035 288.918Q69.1024 288.738 66.5195 288.382Q65.4028 288.225 64.2952 288.013Q63.1876 287.802 62.0918 287.536Q60.9959 287.27 59.9144 286.951Q58.8329 286.632 57.7684 286.259Q56.7039 285.887 55.6589 285.463Q54.614 285.04 53.5911 284.565Q52.5682 284.09 51.5699 283.566Q50.5716 283.041 49.6002 282.468Q48.6288 281.895 47.6868 281.276Q46.7447 280.656 45.8342 279.99Q44.9237 279.325 44.047 278.616Q43.1703 277.906 42.3294 277.155Q41.4886 276.403 40.6857 275.611Q39.8828 274.819 39.1197 273.989Q38.3567 273.158 37.6354 272.291Q36.914 271.424 36.2361 270.523Q35.5028 269.541 34.8187 268.525Q34.1346 267.508 33.5014 266.46Q32.8682 265.411 32.2874 264.332Q31.7066 263.253 31.1797 262.147Q30.6527 261.04 30.1809 259.91Q29.7091 258.779 29.2935 257.626Q28.8779 256.473 28.5195 255.302Q28.1612 254.13 27.861 252.942Q27.5608 251.754 27.3195 250.553Q27.0781 249.351 26.8962 248.14Q26.7144 246.928 26.5924 245.709Q26.4704 244.489 26.4085 243.266Q26.3467 242.042 26.3452 240.816Q26.3437 239.591 26.4026 238.367Q26.4614 237.143 26.5805 235.924Q26.6995 234.704 26.8785 233.492Q27.0391 232.403 27.2534 231.324Q27.4678 230.244 27.7353 229.177Q28.0028 228.11 28.3229 227.057Q28.643 226.004 29.0148 224.968Q29.3866 223.932 29.8092 222.916Q30.2319 221.9 30.7043 220.906Q31.1768 219.912 31.6979 218.943Q32.2189 217.974 32.7874 217.032Q33.3559 216.089 33.9703 215.176Q34.5847 214.263 35.2435 213.382Q35.9024 212.501 36.6041 211.653Q37.3058 210.806 38.0487 209.994Q38.7915 209.182 39.5736 208.408Q40.3557 207.634 41.1752 206.9Q41.9947 206.165 42.8495 205.472Q43.7044 204.78 44.5925 204.13C55.3554 196.191 69.9925 193.704 83.0404 195.693C93.0902 198.512 99.2268 202.925 106.983 209.658C112.618 206.889 118.043 204.603 124.333 206.743C134.109 210.071 142.345 219.793 146.729 228.866C147.827 231.14 148.78 233.518 149.369 235.978C149.996 238.603 151.155 250.511 152.191 251.652C152.153 251.698 152.113 251.742 152.076 251.789C150.53 253.75 150.79 258.465 150.292 260.92C147.722 273.591 138.03 284.842 124.86 286.73Q123.45 286.925 122.034 287.07C122.015 285.444 121.937 283.751 122.334 282.162C123.639 276.945 129.382 267.705 133.187 263.864C136.277 260.745 142.944 259.342 144.159 258.004C141.099 258.54 138.131 259.477 135.069 259.979C137.857 255.407 140.871 250.922 143.577 246.311C142.812 246.575 142.172 247.214 141.635 247.804C139.939 249.668 138.536 251.929 136.949 253.908C131.981 260.107 127.123 266.405 122.111 272.566C121.433 259.175 122.096 255.011 126.978 242.429C128.318 238.975 130.13 235.241 130.893 231.608C127.468 237.649 124.82 244.643 122.266 251.11C121.424 244.612 121.143 237.901 120.988 231.35C120.885 226.994 121.005 222.692 120.499 218.356C120.209 222.994 120.27 228.225 119.011 232.719C116.505 229.225 113.969 225.809 110.991 222.697C112.979 226.854 116.218 230.546 118.85 234.322C119.507 246.584 119.192 259.069 118.854 271.34C117.189 269.671 110.841 262.518 109.122 262.483C108.682 263.157 108.717 263.452 108.871 264.256C109.672 268.429 115.88 273.744 118.547 277.216L118.52 286.66C111.444 285.167 105.058 282.523 99.5796 277.694C96.2997 280.64 92.8934 283.145 88.8601 284.974C87.0631 285.789 82.0923 286.668 80.9564 287.672C79.3998 288.406 77.6291 288.628 75.9484 288.944C75.4982 289.675 75.7845 310.255 75.994 312.427L75.6514 313.994C74.8421 314.081 73.5367 314.295 72.7561 314.036C70.0145 313.127 73.0594 291.41 71.7035 288.918Z"/>
	<path fill="#020B08" d="M74.4636 206.495C75.3907 211.821 74.7983 217.882 74.7373 223.294C74.2931 223.219 74.0688 223.036 73.7158 222.766C73.5049 221.799 73.4885 220.871 73.4731 219.889Q73.5793 213.163 74.4636 206.495Z"/>
	<path fill="#0F2320" d="M72.6133 228.163C69.1827 222.69 65.4368 217.663 61.4586 212.583C61.3715 212.797 61.3945 212.665 61.4954 212.986L61.7476 212.508C64.229 213.714 71.0592 223.269 72.8871 225.915C73.13 223.915 73.2438 221.893 73.4731 219.889C73.4885 220.871 73.5049 221.799 73.7158 222.766C74.0688 223.036 74.2931 223.219 74.7373 223.294C75.6925 230.783 75.4646 241.2 75.1162 248.889C78.797 240.792 82.1429 231.703 86.9667 224.237C85.6411 228.319 83.8403 232.251 82.1779 236.205C76.6317 249.397 75.1215 256.477 76.047 270.828C85.0098 259.57 93.3493 247.891 101.805 236.253C100.947 239.976 92.7987 252.672 90.3403 256.881C94.553 255.901 98.706 254.607 102.929 253.71L102.674 253.868C99.3823 255.862 95.3653 256.489 92.0183 258.441C86.8146 261.476 77.594 275.869 76.0721 281.613C75.5285 283.664 75.1692 286.933 75.9484 288.944C75.4982 289.675 75.7845 310.255 75.994 312.427L75.6514 313.994C74.8421 314.081 73.5367 314.295 72.7561 314.036C70.0145 313.127 73.0594 291.41 71.7035 288.918C72.5975 286.532 71.8105 278.553 71.6842 275.61C67.5764 269.829 62.8841 263.843 57.4823 259.24C52.1061 258.342 46.6047 258.485 41.2044 257.478C46.1407 257.072 51.202 257.15 56.1582 257.034Q51.1452 250.848 45.8921 244.864C42.7195 241.254 37.9081 237.376 36.0472 232.925C41.9533 239.196 48.462 244.911 54.5505 251.015C54.5445 246.622 54.9492 242.422 55.5965 238.077C56.2437 242.698 55.8164 247.71 55.9601 252.389Q63.6785 260.667 71.7613 268.59C71.7268 261.51 71.8502 254.452 71.9312 247.375C72.0046 240.956 71.9915 234.559 72.6133 228.163Z"/>
	<path fill="#30F191" d="M82.6809 70.5267C101.609 65.143 121.223 61.5382 140.624 58.3632Q161.345 55.1622 182.181 52.828Q203.018 50.4938 223.933 49.0304Q244.849 47.567 265.807 46.9771Q286.765 46.3871 307.73 46.6715Q341.932 46.4965 376.077 48.4905Q410.221 50.4846 444.171 54.6396C469.938 57.7705 494.23 61.8989 519.281 68.7515C525.206 70.3723 531.525 71.7778 537.261 73.9508C537.926 74.2027 539.106 74.607 539.385 75.2793C539.783 76.2346 539.77 77.5898 539.778 78.6102C539.812 82.6954 539.529 86.8053 539.458 90.8925L539.252 112.586C539.138 123.39 539.419 134.285 539.021 145.07C538.976 146.279 538.928 147.365 538.427 148.481C532.545 149.641 527.353 150.576 523.589 155.676C522.679 156.909 521.898 158.356 520.524 159.12C519.676 158.847 518.795 158.629 517.927 158.426C510.417 156.671 508.936 160.693 503.499 164.022C503.422 164.069 503.344 164.113 503.267 164.159C514.898 163.583 526.653 164.485 538.305 164.078C538.795 164.81 538.895 165.468 538.948 166.32C539.109 168.929 539.594 185.42 538.374 186.779L538.26 187.252C536.526 186.901 534.8 186.355 533.045 186.137C525.956 185.258 518.35 187.368 512.458 191.269C506.687 195.09 503.725 199.733 500.363 205.537C499.509 207.011 498.332 209.267 496.984 210.303C493.049 210.155 488.923 209.807 485.074 210.838C483.082 211.371 481.147 212.284 479.434 213.43C477.418 214.778 474.778 218.086 472.405 218.161C471.613 213.661 423.072 164.594 415.48 156.556L402.327 142.545C400.038 140.063 397.882 137.217 395.319 135.027L395.102 131.966C388.872 130.811 382.122 131.456 375.797 131.44C368.083 143.786 359.495 155.671 352.312 168.336C348.443 166.605 336.837 151.858 330.921 147.994C330.197 147.311 329.54 145.909 328.996 145.042C326.086 140.405 323.801 137.017 318.783 134.371C312.195 130.897 303.428 130.12 296.303 132.338C288.592 134.737 283.868 140.839 280.249 147.722C277.203 148.189 255.038 172.029 250.501 176.103C249.374 180.552 249.864 186.654 250.219 191.254C254.47 191.266 258.727 191.234 262.977 191.297L263.001 206.041L250.299 205.973C250.294 210.753 250.418 215.577 250.238 220.35C244.814 220.31 239.124 220.59 233.744 219.99C233.711 215.409 233.389 210.565 233.915 206.015Q224.369 206.36 214.819 206.125C209.153 206.027 203.497 205.758 197.854 206.409C195.445 207.561 191.222 212.742 189.026 214.958C182.238 221.806 175.26 228.467 168.529 235.371C163.224 240.812 158.171 246.943 152.191 251.652C151.155 250.511 149.996 238.603 149.369 235.978C148.78 233.518 147.827 231.14 146.729 228.866C142.345 219.793 134.109 210.071 124.333 206.743C118.043 204.603 112.618 206.889 106.983 209.658C99.2268 202.925 93.0902 198.512 83.0404 195.693C82.7648 190.991 83.0666 186.132 83.0739 181.406Q83.1074 167.196 82.9589 152.986C92.5632 152.365 102.341 152.358 111.966 152.509C110.502 150.193 108.936 147.881 106.475 146.534C102.695 144.464 98.4756 145.69 94.6209 146.807C91.0601 142.588 87.8285 140.657 82.6085 138.964C83.2075 130.604 82.9707 122.017 83.0171 113.633Q83.3502 92.0759 82.6809 70.5267Z"/>
	<path fill="#FEFEFE" d="M135.411 198.196C135.49 198.201 135.57 198.205 135.649 198.212C137.578 198.383 139.022 200.442 140.206 201.806L134.697 201.857C133.689 201.859 132.481 201.998 131.511 201.741C130.875 201.573 130.793 201.507 130.489 200.946C131.276 199.407 133.867 198.735 135.411 198.196Z"/>
	<path fill="#FEFEFE" d="M474.189 178.294Q474.801 178.193 475.418 178.123C476.845 177.967 478.688 178.248 479.812 179.239C480.628 179.958 481.207 180.861 481.325 181.951C479.45 182.062 477.539 182.004 475.66 182.019L467.694 181.971C469.857 181.077 472.367 179.767 474.189 178.294Z"/>
	<path fill="#FEFEFE" d="M408.721 95.4397C409.019 95.4005 409.316 95.364 409.616 95.3517C412.906 95.2168 413.093 97.9162 415.446 99.1806C417.305 100.179 420.035 100.319 421.565 101.707C418.751 102.691 415.242 102.284 412.308 102.232C408.133 102.308 404.024 102.437 399.865 101.97C402.466 99.1646 406.142 97.9945 408.721 95.4397Z"/>
	<path fill="#FEFEFE" d="M236.834 75.9541Q237.554 75.8466 238.282 75.841C241.047 75.8342 248.79 81.6294 250.938 83.7183C247.155 83.753 243.367 83.906 239.585 84.0096C236.456 84.1436 229.79 85.1392 227.216 83.5185C227.047 83.0758 226.908 83.0207 227.107 82.5566C228.144 80.1366 234.442 76.9114 236.834 75.9541Z"/>
	<path fill="#FEFEFE" d="M447.541 77.2649C447.913 77.2255 448.279 77.2047 448.653 77.2082C450.757 77.2278 453.451 77.8998 454.94 79.4547C457.546 79.22 460.77 79.2432 463.003 80.8246C463.967 81.5076 464.853 82.4182 465.05 83.6218C460.887 84.1845 456.267 83.8927 452.052 83.9404C446.2 83.9697 440.539 84.5412 434.717 83.6128C436.456 82.1861 437.155 79.3212 439.537 78.6171C440.773 78.2519 441.864 78.8275 442.949 79.3473C444.511 78.7351 446.023 77.9796 447.541 77.2649Z"/>
	<path fill="#FEFEFE" d="M168.375 150.087C168.901 150.022 169.427 149.973 169.958 149.998C173.146 150.152 175.154 153.124 177.104 155.302Q180.008 154.957 182.899 154.511C184.417 155.838 185.681 157.207 186.855 158.848C181.726 159.982 176.166 159.458 170.951 159.307C166.938 159.437 158.468 160.271 155.09 158.889L154.921 158.475C155.162 156.545 155.733 154.486 157.093 153.025C157.72 152.351 158.602 151.861 159.546 151.916C160.978 152 161.896 153.414 162.754 154.412C164.516 152.735 166.203 151.216 168.375 150.087Z"/>
	<path fill="#FEFEFE" d="M180.037 88.8372C181.441 88.724 182.791 88.6953 184.191 88.8893C190.285 89.7335 193.838 94.0077 197.323 98.6285C198.33 98.2713 199.421 97.956 200.483 97.8198C204.622 97.2896 207.626 99.4764 210.734 101.851C201.909 102.856 192.794 102.322 183.924 102.198C177.657 102.28 159.188 103.453 154.139 101.958L153.94 101.52C154.497 100.263 155.975 99.164 157.157 98.508C160.77 96.5029 164.69 97.3459 168.455 98.399C168.492 98.3291 168.528 98.2588 168.566 98.1894C171.309 93.1654 174.519 90.4252 180.037 88.8372Z"/>
	<path fill="#FEFEFE" d="M322.356 82.8826C323.767 82.8692 325.261 83.0841 326.622 83.4477C331.692 84.8022 334.525 88.333 337.015 92.6953C338.431 92.566 339.933 92.3529 341.348 92.5695C344.639 93.0735 346.342 95.2621 348.239 97.7665C339.712 96.6881 330.351 97.4399 321.763 97.5123Q308.884 97.9191 296.002 97.6289C297.041 96.3434 298.22 94.9871 299.577 94.0347C302.376 92.071 305.442 92.1542 308.684 92.7045Q308.934 92.2866 309.194 91.8755C312.562 86.5681 316.312 84.2183 322.356 82.8826Z"/>
	<path fill="#FEFEFE" d="M439.844 106.258C441.023 106.121 442.129 106.015 443.299 106.272C446.902 107.065 450.951 109.694 452.908 112.849C453.71 114.142 454.444 115.787 454.092 117.328C456.126 116.083 457.776 114.263 459.889 113.126C462.099 111.937 464.439 111.649 466.842 112.415C469.393 113.229 471.771 115.15 472.988 117.552C473.83 119.216 474.196 121.171 473.617 122.971C467.29 123.585 460.794 123.385 454.443 123.392Q436.966 123.238 419.507 124.039C421.333 121.421 419.308 118.063 420.102 115.964C421.059 113.435 424.609 111.745 426.883 110.633C427.199 110.719 427.51 110.82 427.81 110.951C429.316 111.612 431.71 112.937 432.314 114.559C435.579 111.991 434.661 109.208 439.844 106.258Z"/>
	<path fill="#FEFEFE" d="M230.653 131.72C237.202 131.821 243.761 131.773 250.312 131.793Q250.15 144.681 250.117 157.57C250.077 162.674 249.334 171.511 250.501 176.103C249.374 180.552 249.864 186.654 250.219 191.254C254.47 191.266 258.727 191.234 262.977 191.297L263.001 206.041L250.299 205.973C250.294 210.753 250.418 215.577 250.238 220.35C244.814 220.31 239.124 220.59 233.744 219.99C233.711 215.409 233.389 210.565 233.915 206.015Q224.369 206.36 214.819 206.125C209.153 206.027 203.497 205.758 197.854 206.409L194.125 206.027C193.845 201.089 193.217 195.787 194.75 191C196.944 184.152 202.498 177.921 206.247 171.798Q218.344 151.695 230.653 131.72Z"/>
	<path fill="#93F2BC" d="M233.872 174.467Q234.189 183.103 233.974 191.742C229.785 191.855 223.022 192.663 219.148 191.477C221.862 188.504 224.437 185.389 227.107 182.375C229.386 179.804 231.894 177.278 233.872 174.467Z"/>
	<path fill="#0F2320" d="M209.679 191.835C215.339 183.49 220.582 175.03 225.812 166.413C228.519 161.953 231.453 157.515 233.846 152.882C234.316 160 234.197 167.342 233.872 174.467C231.894 177.278 229.386 179.804 227.107 182.375C224.437 185.389 221.862 188.504 219.148 191.477C216.181 192.239 212.715 191.895 209.679 191.835Z"/>
</svg>
