<?xml version="1.0" encoding="utf-8" ?>
<svg xmlns="http://www.w3.org/2000/svg" xmlns:xlink="http://www.w3.org/1999/xlink" width="612" height="408">
	<path fill="white" d="M0 0L611.477 0C611.818 0.535635 611.935 0.999472 611.964 1.63044C612.227 7.37396 611.999 13.2129 612 18.9672L612.002 52.7813L612.004 155.957L612.002 345.011L612 390.935C611.999 394.107 612.475 404.493 611.917 406.959C611.83 407.344 611.686 407.669 611.477 408L0 408L0 0Z"/>
	<path fill="#42AA7F" d="M250.509 312.463Q251.128 312.492 251.744 312.558C252.581 312.654 253.462 312.904 253.998 313.587C253.58 314.219 252.978 314.215 252.27 314.403C250.615 314.499 249.353 314.579 247.934 313.567L247.963 313.12C248.801 312.584 249.548 312.554 250.509 312.463Z"/>
	<path fill="#42AA7F" d="M386.821 344.1Q387.948 344.064 389.069 344.182C390.083 344.279 391.194 344.468 391.855 345.264C391.287 345.855 390.96 345.885 390.188 346.115Q388.856 346.118 387.525 346.092C386.546 346.064 385.57 346.043 384.877 345.311C385.345 344.605 386.07 344.405 386.821 344.1Z"/>
	<path fill="#42AA7F" d="M75.9913 312.067C77.4075 312.731 80.6453 312.258 82.2636 312.239C82.2958 313.027 82.2072 313.1 82.7843 313.686C83.8564 313.823 85.4008 313.448 86.28 314.064C82.139 314.331 77.838 314.064 73.674 314.158L75.4874 313.886C76.1019 313.258 75.9562 312.924 75.9913 312.067Z"/>
	<path fill="#2EB26D" d="M545.619 312.321C547.772 312.083 550.973 311.491 552.835 312.887C552.936 312.963 553.031 313.047 553.128 313.127C551.643 314.46 545.948 314.117 543.864 313.96C543.663 313.944 543.463 313.921 543.263 313.893C543.727 313.247 544.278 313.146 545.006 312.949L545.315 312.867L545.619 312.321Z"/>
	<path fill="#32F092" d="M157.005 321.944C157.777 321.884 158.699 321.792 159.438 322.077C160.501 322.486 161.51 323.407 161.966 324.454C161.582 324.908 161.415 324.846 160.844 324.938C159.556 324.964 157.135 325.307 155.964 324.816C155.512 324.626 155.596 324.539 155.437 324.114C155.743 323.187 156.347 322.634 157.005 321.944Z"/>
	<path fill="#95F1BC" d="M449.232 305.203L450.846 304.237C451.553 306.084 449.489 313.448 448.653 315.462C448.526 315.766 448.352 315.951 448.137 316.194C448.436 317.349 448.055 319.775 447.468 320.83C447.224 321.267 446.904 321.571 446.517 321.878C445.729 321.812 445.505 321.538 444.88 321.075L445.703 320.592C446.321 319.159 446.802 317.248 446.676 315.686C446.765 315.546 446.9 315.343 446.977 315.185C447.823 313.435 449.463 307.851 448.783 306.092C445.694 306.123 442.591 306.211 439.506 306.025C442.66 305.603 446.394 306.424 449.418 305.584L449.232 305.203Z"/>
	<path fill="#95F1BC" d="M471.45 325.548C471.528 325.562 471.606 325.576 471.684 325.589C474.89 326.125 480.034 325.422 482.662 327.525C482.792 327.948 482.847 327.819 482.65 328.165C482.023 329.27 479.224 329.81 478.075 330.011C472.913 330.918 466.589 331.093 461.616 329.396Q462.14 329.374 462.663 329.333C465.198 329.133 469.788 328.213 471.502 326.22L471.45 325.548Z"/>
	<path fill="#32F092" d="M242.749 355.981C243.481 352.395 246.348 348.596 248.144 345.38C252.914 336.84 257.888 328.454 262.718 319.953C264.288 317.189 265.888 314.402 267.417 311.621C268.131 310.322 268.752 308.678 269.71 307.56L269.327 307.764L269.835 307.903C268.234 311.537 266.217 315.009 264.38 318.529L256.042 334.86C252.491 341.828 249.441 349.354 245.303 355.991L242.749 355.981Z"/>
	<path fill="#42AA7F" d="M119.03 290.936L119.066 291.251C119.411 294.44 118.366 310.577 119.675 312.047C120.478 312.189 121.168 312.181 121.979 312.106L122.258 312.133C127.533 312.616 133.094 312.227 138.407 312.303Q155.244 312.457 172.055 313.4L172.006 313.354C171.951 313.382 171.899 313.416 171.841 313.437C170.539 313.929 108.664 314.345 102.589 314.064C104.085 312.52 114.451 314.785 117.069 313.562C117.746 313.245 118.354 313.315 119.081 313.365L119.435 313.391C118.046 313.047 116.596 312.645 115.164 312.571C111.145 312.364 104.369 313.778 100.837 312.254C100.755 312.219 100.674 312.18 100.593 312.143L118.936 312.311C118.943 305.207 118.686 298.027 119.03 290.936Z"/>
	<path fill="#32F092" d="M330.332 306.281C332.388 305.648 382.601 305.811 388.523 306.127C379.439 306.834 369.975 306.34 360.85 306.346C350.978 306.352 340.87 306.801 331.025 306.332C333.106 311.238 336.095 315.84 338.559 320.57Q345.665 334.151 352.243 347.996C353.374 350.349 355.544 353.496 355.993 356.009L353.296 355.972C352.181 352.402 350.012 348.668 348.453 345.243C344.041 335.548 339.441 325.945 334.901 316.31C333.429 313.186 331.014 309.616 330.332 306.281Z"/>
	<path fill="#32F092" d="M471.212 341.611C468.556 339.606 460.97 337.061 457.711 335.731C449.43 332.352 441.233 328.768 432.941 325.414C426.651 322.87 419.837 320.618 413.92 317.315C414.741 317.307 466.534 337.639 467.355 338.339C469.898 338.723 503.192 352.443 505.523 354.139C506.003 353.219 506.039 352.157 505.747 351.163C506.195 352.064 506.41 353.39 506.1 354.379C505.944 354.88 505.533 355.266 505.164 355.615C504.41 355.768 503.789 355.744 503.026 355.676C502.889 355.453 502.792 355.2 502.616 355.006C501.949 354.276 473.995 342.447 471.212 341.611Z"/>
	<path fill="#32F092" d="M392.021 335.55C388.455 332.141 361.51 308.691 361.172 307.209C362.141 307.35 391.174 332.12 393.813 334.63C396.298 336.262 416.783 354.198 417.424 355.946C415.766 356.15 414.002 355.979 412.332 355.928C412.627 355.607 412.635 355.617 412.654 355.184C409.125 352.752 394.6 338.746 392.021 335.55Z"/>
	<path fill="#0D231E" d="M451.875 299.175L452.595 299.15C453.515 300.182 454.636 302.92 454.55 304.309C454.545 304.386 454.524 304.462 454.511 304.538C455.563 306.14 457.664 310.636 457.632 312.58L457.119 313.151C456.632 315.153 451.836 324.132 450.359 325.268C450.061 325.873 449.809 326.517 449.321 326.995C448.053 325.469 444.447 324.747 442.671 322.612C442.045 321.86 441.858 321.495 441.953 320.539C442.452 320.163 442.789 319.902 443.452 320.019C444.194 320.15 444.459 320.523 444.88 321.075C445.505 321.538 445.729 321.812 446.517 321.878C446.904 321.571 447.224 321.267 447.468 320.83C448.055 319.775 448.436 317.349 448.137 316.194C448.352 315.951 448.526 315.766 448.653 315.462C449.489 313.448 451.553 306.084 450.846 304.237C450.992 304.106 451.056 304.063 451.167 303.915C451.985 302.829 451.976 300.489 451.875 299.175Z"/>
	<path fill="#2EB26D" d="M82.2636 312.239C82.2745 312.186 82.2866 312.132 82.2962 312.079C82.7835 309.351 81.3455 304.43 84.0272 302.443C85.0464 301.688 87.0987 301.443 88.3057 301.67C89.7501 301.941 90.9055 302.905 91.6863 304.119C92.3856 305.206 92.8999 306.418 93.4104 307.602C95.1891 307.413 95.6744 303.553 98.9782 304.443C99.8294 305.269 100.267 306.362 100.302 307.545C100.343 308.952 99.905 310.269 99.3451 311.537L99.5033 311.942C99.8628 312.019 100.226 312.118 100.593 312.143C100.674 312.18 100.755 312.219 100.837 312.254C104.369 313.778 111.145 312.364 115.164 312.571C116.596 312.645 118.046 313.047 119.435 313.391L119.081 313.365C118.354 313.315 117.746 313.245 117.069 313.562C114.451 314.785 104.085 312.52 102.589 314.064C97.1621 314.226 91.7096 314.097 86.28 314.064C85.4008 313.448 83.8564 313.823 82.7843 313.686C82.2072 313.1 82.2958 313.027 82.2636 312.239Z"/>
	<path fill="#476F67" d="M298.013 306.506C295.801 305.972 292.964 306.228 290.664 306.209C284.436 306.159 278.211 306.322 271.984 306.289C244.048 306.142 215.959 306.586 188.044 305.615C197.629 305.154 207.379 305.4 216.983 305.335L276.576 305.147L449.232 305.203L449.418 305.584C446.394 306.424 442.66 305.603 439.506 306.025C422.536 305.777 405.501 306.122 388.523 306.127C382.601 305.811 332.388 305.648 330.332 306.281C324.591 305.98 318.727 306.207 312.974 306.204C308.508 306.202 303.461 305.783 299.065 306.481C298.739 306.543 298.347 306.503 298.013 306.506Z"/>
	<path fill="#0D231E" d="M59.4741 76.6574C59.3525 74.1657 59.0104 57.1866 59.6756 56.0062L60.3539 55.8324C60.9666 56.4113 61.0668 56.8161 61.1153 57.668C61.2664 60.3256 61.0021 63.132 61.0175 65.8156C61.0462 70.8287 61.6989 76.7502 60.7915 81.6756C62.2605 82.2155 65.0818 82.8967 65.7734 84.3425C65.3903 84.8371 65.0044 85.0751 64.4769 85.3834C63.8813 87.4458 65.5477 90.8216 66.5231 92.6072C66.795 93.1049 67.0717 93.488 67.4832 93.8776C67.7604 94.14 68.0368 94.4003 68.3223 94.6537L68.3006 95.1825C66.9237 96.1269 64.729 96.1631 63.0998 96.3277C63.7684 98.3978 65.6218 100.113 64.8553 102.45C64.5017 103.529 63.5969 104.353 62.5697 104.788C61.3241 105.316 59.8291 105.33 58.5882 104.781C57.5584 104.325 56.7606 103.53 56.382 102.46C55.5713 100.171 56.5838 98.3564 57.5021 96.3249C55.6009 96.0409 53.6754 95.9992 51.7573 95.917C53.2947 93.9327 55.1582 91.816 55.8643 89.3652C56.4854 87.2093 56.0978 85.779 55.0271 83.8608C56.4783 82.9573 57.8602 82.2145 59.5059 81.7349C59.46 80.0439 59.4778 78.3491 59.4741 76.6574Z"/>
	<path fill="white" d="M58.7889 96.42C59.878 96.3217 60.9259 96.1935 62.0152 96.3553C62.0065 97.6907 62.2034 99.6998 61.7358 100.953C61.4995 101.586 61.3751 101.59 60.7914 101.837C59.1911 100.616 59.8351 98.417 58.9378 96.6985L58.7889 96.42Z"/>
	<path fill="#2EB26D" d="M514.87 354.205C514.897 354.144 514.927 354.084 514.951 354.022C516.476 350.148 512.421 342.621 517.954 339.968C518.812 339.557 519.785 339.632 520.653 339.968C522.936 340.852 524.91 343.488 525.779 345.705C526.122 346.582 526.159 347.515 526.198 348.445L526.531 348.442C528.362 346.331 531.429 341.859 534.512 341.737C535.346 341.704 536.027 342.048 536.612 342.621C538.224 344.202 538.337 346.172 538.295 348.3C538.246 350.75 537.798 353.548 536.519 355.662C534.706 356.461 505.567 356.207 502.512 355.751L503.026 355.676C503.789 355.744 504.41 355.768 505.164 355.615C505.533 355.266 505.944 354.88 506.1 354.379C506.41 353.39 506.195 352.064 505.747 351.163C506.161 350.326 506.404 349.406 507.339 349.027C508.429 348.585 509.938 349.032 510.915 349.564C512.347 350.344 514.417 352.351 514.811 353.929C514.834 354.02 514.85 354.113 514.87 354.205Z"/>
	<path fill="#2EB26D" d="M512.87 305.464C513.805 303.832 513.58 300.582 514.105 298.593C514.693 296.362 515.708 293.895 517.82 292.714C518.432 292.372 519.458 291.946 520.166 292.166C521.505 292.581 522.326 293.734 522.966 294.917C524.204 297.206 526.241 302.08 525.498 304.651C529.298 302.423 531.419 296.076 536.391 295.421C536.986 295.343 537.644 295.462 538.115 295.853C539.242 296.786 539.521 298.89 539.558 300.275C539.629 302.899 538.605 309.916 536.732 311.897C539.286 310.859 541.347 307.697 544.127 307.32C544.899 307.215 545.12 307.376 545.692 307.857C546.298 309.367 545.906 310.781 545.619 312.321L545.315 312.867L545.006 312.949C544.278 313.146 543.727 313.247 543.263 313.893C537.476 314.621 529.722 313.909 523.716 313.903C510.258 313.887 496.76 314.164 483.31 313.792C485.853 312.831 488.977 313.79 491.664 313.344L491.834 312.912Q496.857 312.707 501.884 312.694C502.318 310.786 501.846 308.63 502.226 306.635C502.473 305.34 502.927 304.017 504.116 303.295C505.494 302.46 507.635 302.533 509.15 302.98C510.5 303.379 512.193 304.184 512.87 305.464Z"/>
	<path fill="white" d="M75.7515 288.965C77.4975 288.66 79.1167 288.263 80.7592 287.594C81.7646 288.65 82.7511 289.818 83.8432 290.779Q101.436 290.948 119.03 290.936C118.686 298.027 118.943 305.207 118.936 312.311L100.593 312.143C100.226 312.118 99.8628 312.019 99.5033 311.942L99.3451 311.537C99.905 310.269 100.343 308.952 100.302 307.545C100.267 306.362 99.8294 305.269 98.9782 304.443C95.6744 303.553 95.1891 307.413 93.4104 307.602C92.8999 306.418 92.3856 305.206 91.6863 304.119C90.9055 302.905 89.7501 301.941 88.3057 301.67C87.0987 301.443 85.0464 301.688 84.0272 302.443C81.3455 304.43 82.7835 309.351 82.2962 312.079C82.2866 312.132 82.2745 312.186 82.2636 312.239C80.6453 312.258 77.4075 312.731 75.9913 312.067L75.7515 288.965Z"/>
	<path fill="#2EB26D" d="M133.291 350.66C137.594 346.994 143.468 344.686 148.498 342.131L166.97 332.687L185.73 323.103C189.408 321.229 193.119 319.051 196.991 317.644C195.574 319.087 186.606 323.213 184.051 324.562L139.639 348.027Q136.521 349.694 133.342 351.24C132.662 352.233 132.085 352.9 132.099 354.156C132.05 354.187 132 354.216 131.951 354.247C131.387 354.606 131.048 354.982 130.652 355.515C128.825 356.031 126.902 355.598 125.052 355.941C120.524 356.278 115.768 356.015 111.219 356.013C104.736 356.01 98.203 356.167 91.7267 355.892C90.1223 351.72 89.0696 348.842 90.273 344.422C91.3451 343.308 92.3072 342.357 93.9129 342.146C97.6336 341.657 101.363 345.149 104.069 347.296C103.46 342.963 102.819 337.821 104.888 333.79C105.669 332.268 106.895 331.058 108.557 330.531C109.981 330.08 111.498 330.094 112.818 330.856C117.171 333.369 118.687 341.113 119.991 345.642C121.95 342.372 124.15 339.274 127.185 336.903C128.489 335.883 130.653 334.374 132.406 334.659C133.216 334.791 133.877 335.222 134.335 335.902C136.731 339.459 134.214 346.728 133.291 350.66Z"/>
	<path fill="#0D231E" d="M138.433 350.878C139.463 350.542 140.347 350.179 141.445 350.424C142.11 350.954 142.317 351.23 142.474 352.121C142.548 352.54 142.535 352.994 142.535 353.419L142.989 354.339C144.975 354.395 147.613 351.78 149.402 353.751C149.908 354.309 150.264 355.247 150.367 355.994C156.58 356.007 175.101 356.85 179.991 355.161C182.175 354.406 184.884 350.321 186.875 350.44C185.324 352.701 182.755 354.22 180.565 355.826C187.76 356.348 195.174 356.001 202.395 355.999L242.749 355.981L245.303 355.991L297.264 355.982L299.156 355.99L353.296 355.972L355.993 356.009C374.765 356.001 393.564 356.197 412.332 355.928C414.002 355.979 415.766 356.15 417.424 355.946C430.351 356.399 443.426 356.015 456.366 356.012C471.725 356.009 487.165 356.327 502.512 355.751C505.567 356.207 534.706 356.461 536.519 355.662C541.105 355.644 558.308 354.58 561.226 356.82L561.241 357.911C559.597 359.25 557.409 359.478 555.357 359.527C540.746 359.872 526.058 359.449 511.44 359.428L444.887 359.632L228.695 359.68L116.842 359.667L84.5262 359.748C79.1532 359.777 73.3484 360.266 68.021 359.734C66.8775 359.62 65.0478 359.302 64.3246 358.338C63.9987 357.904 64.09 357.661 64.1258 357.149C64.8295 356.285 65.927 356.094 66.9866 355.983C69.5961 355.71 72.3782 355.996 75.0127 355.995L91.7267 355.892C98.203 356.167 104.736 356.01 111.219 356.013C115.768 356.015 120.524 356.278 125.052 355.941C126.902 355.598 128.825 356.031 130.652 355.515C131.048 354.982 131.387 354.606 131.951 354.247C132 354.216 132.05 354.187 132.099 354.156Q135.247 352.48 138.433 350.878Z"/>
	<path fill="#2EB26D" d="M138.433 350.878C139.463 350.542 140.347 350.179 141.445 350.424C142.11 350.954 142.317 351.23 142.474 352.121C142.548 352.54 142.535 352.994 142.535 353.419L142.989 354.339C144.975 354.395 147.613 351.78 149.402 353.751C149.908 354.309 150.264 355.247 150.367 355.994Q146.576 356.004 142.785 355.918Q133.919 356.063 125.052 355.941C126.902 355.598 128.825 356.031 130.652 355.515C131.048 354.982 131.387 354.606 131.951 354.247C132 354.216 132.05 354.187 132.099 354.156Q135.247 352.48 138.433 350.878Z"/>
	<path fill="white" d="M299.065 306.481C303.461 305.783 308.508 306.202 312.974 306.204C318.727 306.207 324.591 305.98 330.332 306.281C331.014 309.616 333.429 313.186 334.901 316.31C339.441 325.945 344.041 335.548 348.453 345.243C350.012 348.668 352.181 352.402 353.296 355.972L299.156 355.99L297.264 355.982C297.034 353.774 297.212 351.412 297.227 349.19C297.266 343.537 297.451 337.894 297.562 332.244C297.729 323.751 297.328 314.946 298.013 306.506C298.347 306.503 298.739 306.543 299.065 306.481Z"/>
	<path fill="#32F092" d="M298.013 306.506C298.347 306.503 298.739 306.543 299.065 306.481Q299.06 322.301 299.291 338.119C299.359 343.365 299.975 350.948 299.156 355.99L297.264 355.982C297.034 353.774 297.212 351.412 297.227 349.19C297.266 343.537 297.451 337.894 297.562 332.244C297.729 323.751 297.328 314.946 298.013 306.506Z"/>
	<path fill="#0D231E" d="M280.734 146.565C284.898 139.555 289.053 134.031 297.384 131.891C304.806 129.985 313.599 130.996 320.225 135.01C325.012 137.911 327.68 142.373 330.326 147.115C335.771 151.268 342.345 158.714 347.312 163.687C348.916 165.292 350.511 167.149 352.29 168.551C352.62 166.622 372.889 136.157 375.735 131.475C380.391 131.477 390.98 130.829 394.947 131.937C395.427 132.697 395.281 133.881 395.289 134.762C397.742 137.097 399.855 139.793 402.161 142.274L417.694 158.785C424.03 165.491 472.076 214.348 472.761 218.151C474.356 218.156 476.505 215.326 477.863 214.389C480.106 212.841 482.5 211.903 484.845 210.599L485.177 210.412C486.759 210.45 488.789 210.242 490.315 209.835C491.901 209.949 496.764 210.7 497.828 209.832L497.841 208.922C499.602 207.671 501.025 204.163 502.135 202.24C506.426 194.805 513.676 189.045 522.036 186.868C526.439 185.721 534.313 185.041 538.398 187.445C546.126 190.028 553.527 198.118 557.092 205.224C563.551 218.101 564.741 236.133 560.165 249.786C557.071 259.016 550.414 267.386 541.594 271.691Q540.768 272.1 539.892 272.388C540.483 273.579 540.331 284.964 539.813 286.64C539.735 286.896 539.64 287.141 539.529 287.384C538.648 288.662 536.165 289.652 534.669 289.892C534.436 289.929 534.203 289.939 533.968 289.941C532.281 290.608 529.924 290.308 528.128 290.204C524.184 290.999 503.047 290.757 498.409 290.224Q495.065 290.493 491.725 290.804C492.204 292.561 492.416 310.926 491.834 312.912L491.664 313.344C488.977 313.79 485.853 312.831 483.31 313.792L469.158 313.811C469.597 317.041 471.954 319.729 472.053 323.066C472.081 323.985 471.495 324.675 471.45 325.548L471.502 326.22C469.788 328.213 465.198 329.133 462.663 329.333Q462.14 329.374 461.616 329.396C461.39 329.524 461.206 329.624 460.95 329.681C457.806 330.38 452.069 328.528 449.321 326.995C449.809 326.517 450.061 325.873 450.359 325.268C451.836 324.132 456.632 315.153 457.119 313.151L457.632 312.58C457.664 310.636 455.563 306.14 454.511 304.538C454.524 304.462 454.545 304.386 454.55 304.309C454.636 302.92 453.515 300.182 452.595 299.15L451.875 299.175C452.044 298.221 451.978 297.214 451.936 296.25C451.863 294.587 451.658 292.056 450.382 290.876C441.671 290.713 432.871 291.059 424.143 291.026L329.423 290.969L195.094 290.94L121.984 291.018L121.979 312.106C121.168 312.181 120.478 312.189 119.675 312.047C118.366 310.577 119.411 294.44 119.066 291.251L119.03 290.936Q101.436 290.948 83.8432 290.779C82.7511 289.818 81.7646 288.65 80.7592 287.594C79.1167 288.263 77.4975 288.66 75.7515 288.965L75.9913 312.067C75.9562 312.924 76.1019 313.258 75.4874 313.886L73.674 314.158C73.139 314.124 72.6118 314.063 72.0802 313.997C71.1544 312.818 71.9075 292.246 71.8494 288.872C69.9724 288.813 68.1227 288.694 66.2612 288.439Q65.1431 288.275 64.0345 288.056Q62.9258 287.837 61.8293 287.564Q60.7328 287.291 59.6511 286.964Q58.5693 286.637 57.505 286.257Q56.4407 285.878 55.3964 285.446Q54.352 285.014 53.3302 284.531Q52.3084 284.049 51.3117 283.516Q50.3149 282.984 49.3455 282.403Q48.3762 281.822 47.4366 281.194Q46.497 280.566 45.5895 279.892Q44.682 279.219 43.8087 278.501Q42.9355 277.784 42.0986 277.025Q41.2618 276.265 40.4633 275.465Q39.6649 274.665 38.9068 273.827Q38.1487 272.989 37.4328 272.114Q36.7169 271.24 36.045 270.331Q35.33 269.368 34.6627 268.371Q33.9954 267.374 33.3774 266.346Q32.7594 265.318 32.1921 264.261Q31.6248 263.204 31.1096 262.121Q30.5944 261.038 30.1325 259.931Q29.6705 258.824 29.263 257.696Q28.8555 256.567 28.5034 255.421Q28.1512 254.274 27.8552 253.111Q27.5593 251.949 27.3202 250.773Q27.0811 249.598 26.8995 248.412Q26.7179 247.226 26.5942 246.033Q26.4705 244.84 26.4049 243.642Q26.3394 242.444 26.3322 241.245Q26.325 240.045 26.3762 238.847Q26.4273 237.648 26.5367 236.453Q26.6461 235.259 26.8135 234.071Q26.96 232.983 27.1601 231.903Q27.3602 230.823 27.6134 229.755Q27.8666 228.686 28.1723 227.631Q28.4779 226.577 28.8353 225.538Q29.1927 224.5 29.6009 223.481Q30.0092 222.461 30.4673 221.463Q30.9253 220.465 31.4322 219.491Q31.939 218.517 32.4933 217.569Q33.0476 216.621 33.6481 215.702Q34.2485 214.783 34.8936 213.894Q35.5388 213.006 36.227 212.15Q36.9152 211.294 37.6449 210.474Q38.3745 209.653 39.1438 208.87Q39.9131 208.087 40.7201 207.342Q41.5272 206.598 42.37 205.894Q43.2128 205.19 44.0894 204.529C54.8404 196.511 69.438 193.716 82.5767 195.631C91.8319 197.632 100.192 202.927 106.771 209.672C112.164 206.941 117.538 204.46 123.653 206.445C133.482 209.634 141.771 218.932 146.284 227.928C148.987 233.315 150.277 238.938 150.974 244.895C151.221 247.005 151.143 249.803 151.917 251.726C157.064 247.858 164.857 238.903 169.658 234.026C178.816 224.724 188.303 215.753 197.337 206.328C201.517 205.572 206.383 206.028 210.634 206.042Q222.296 206.129 233.958 205.982C233.898 210.67 233.779 215.367 233.929 220.054Q242.039 220.041 250.148 220.195C250.217 215.445 250.136 210.684 250.127 205.933L262.943 205.945Q262.826 198.656 262.872 191.366Q256.48 191.279 250.088 191.416C250.049 187.073 249.403 180.069 250.342 176.043C254.131 172.519 279.137 146.877 280.734 146.565Z"/>
	<path fill="white" d="M445.747 285.039C445.799 284.944 445.854 284.85 445.903 284.753C446.99 282.582 445.355 282.665 447.989 280.677L448.381 280.621C448.615 281.383 448.501 281.813 448.155 282.551C447.818 283.271 447.208 283.715 446.935 284.512C447.262 284.982 447.499 285.095 447.999 285.331L447.362 285.699C446.61 285.452 446.011 285.602 445.293 285.924C444.48 286.289 443.758 287.404 443.481 288.24C443.289 288.821 443.618 289.077 443.706 289.601C443.723 289.703 443.694 289.808 443.688 289.912C443.397 289.922 443.159 289.933 442.88 289.834C441.143 289.221 440.168 287.644 439.425 286.075C439.682 285.692 439.932 285.456 440.292 285.17L440.623 285.497C442.394 285.582 444.005 285.352 445.747 285.039Z"/>
	<path fill="white" d="M304.808 243.063C307.357 242.983 310.115 242.818 312.629 243.263C313.115 243.694 313.043 243.946 313.135 244.575C312.553 245.296 311.581 245.223 310.689 245.456C310.086 247.979 310.479 251.223 310.472 253.842C310.468 254.654 310.559 255.116 310.155 255.831C309.45 256.037 309.373 256.077 308.637 255.844C306.669 253.171 309.017 248.051 307.8 245.405C307.046 245.262 306.304 245.087 305.558 244.907C304.925 244.259 304.968 243.936 304.808 243.063Z"/>
	<path fill="white" d="M320.805 243.019C322.32 242.982 324.02 242.803 325.518 242.987C326.438 243.101 326.829 243.457 327.331 244.154C326.648 245.813 324.464 244.694 323.152 245.598C322.978 246.559 323.009 247.447 323.055 248.414C323.953 249.293 325.237 248.669 326.4 249.048C326.845 249.193 326.804 249.329 327.018 249.718C326.862 250.419 326.926 250.425 326.333 250.813C325.37 250.783 324.398 250.63 323.543 251.14C322.247 252.727 322.917 254.209 322.858 256.045L322.26 256.295C321.754 256.208 321.432 256.07 320.988 255.814C320.408 251.699 320.79 247.182 320.805 243.019Z"/>
	<path fill="#95F1BC" d="M439.425 286.075C440.162 283.914 439.977 280.627 440.231 278.29C440.978 271.427 443.692 259.33 448.85 254.598C449.802 253.724 452.138 252.171 453.482 252.278C453.95 252.315 453.902 252.417 454.176 252.751C453.668 253.715 451.781 254.282 450.902 255.058C449.539 256.262 448.434 257.87 447.539 259.439C444.295 265.128 442.544 271.535 441.672 277.989C441.341 280.44 441.325 283.128 440.623 285.497L440.292 285.17C439.932 285.456 439.682 285.692 439.425 286.075Z"/>
	<path fill="white" d="M267.258 243.086C269.291 243.037 271.95 242.78 273.901 243.37C274.067 243.747 274.125 243.988 274.089 244.395C273.992 245.486 271.056 245.261 270.105 246.041C269.775 246.921 269.86 247.488 270.009 248.404C270.94 249.184 272.014 248.641 273.012 249.342C273.08 250 273.078 250.057 272.765 250.638C272.052 250.679 271.376 250.768 270.674 250.901C269.879 251.612 269.939 252.093 269.758 253.11C270.819 254.924 272.309 253.513 273.696 254.414C274.063 254.652 273.989 254.872 274.071 255.278C272.868 256.331 268.732 255.943 267.109 255.961Q267.147 249.523 267.258 243.086Z"/>
	<path fill="white" d="M341.848 242.852C342.192 242.864 342.597 242.847 342.931 242.922C345.101 243.407 343.33 251.408 344.621 253.562C345.382 254.042 345.456 254.052 346.355 253.99C349.124 251.96 346.553 246.272 347.918 243.259C348.643 242.791 348.666 242.893 349.473 243.051C350.054 243.62 349.909 243.933 349.938 244.725C349.958 247.731 349.951 250.725 349.836 253.729C349.484 254.22 349.144 254.72 348.75 255.179C348.104 255.933 347.172 256.283 346.193 256.305C345.025 256.331 343.875 256.09 343.039 255.224C340.832 252.937 341.798 245.851 341.848 242.852Z"/>
	<path fill="white" d="M259.315 243.026C260.098 242.985 261.7 242.72 262.361 243.156C263.136 243.667 263.758 244.195 263.991 245.11C263.093 246.41 260.276 245.189 258.823 245.858C258.345 246.501 258.181 247.105 258.099 247.895C257.911 249.732 257.679 252.241 258.898 253.759C259.509 254.058 259.862 254.271 260.574 254.075C261.408 253.846 261.832 253.265 262.251 252.559C262.319 251.741 262.321 251.74 261.826 251.086C261.136 250.842 260.632 250.657 260.091 250.155C260.273 249.381 260.476 249.387 261.112 248.952Q261.406 248.934 261.701 248.923C262.263 248.901 263.052 248.842 263.471 249.272C264.55 250.382 263.932 254.234 263.876 255.845C262.516 256.019 260.994 256.307 259.631 256.043C258.153 255.756 256.743 254.765 255.974 253.475C254.968 251.788 254.901 249.651 255.454 247.799C256.118 245.572 257.276 244.111 259.315 243.026Z"/>
	<path fill="white" d="M234.591 243.277C236.109 243.219 238.013 243.035 239.428 243.654C240.669 244.196 241.827 245.125 242.288 246.436C242.595 247.308 242.521 248.163 242.096 248.983C241.079 250.944 239.356 251.391 237.408 251.961L237.225 252.032C236.749 252.737 237.054 253.696 237.026 254.505C237.002 255.208 237.024 255.476 236.503 255.937C235.671 255.914 235.541 255.949 234.833 255.447C234.142 253.952 234.585 245.315 234.591 243.277Z"/>
	<path fill="#0D231E" d="M237.021 244.878C237.478 244.978 237.886 245.104 238.288 245.354C238.873 245.717 239.374 246.083 239.546 246.774C239.773 247.686 239.335 248.331 238.897 249.094C238.526 249.344 238.123 249.523 237.721 249.719L237.187 249.476C236.656 248.129 236.949 246.321 237.021 244.878Z"/>
	<path fill="white" d="M247.15 243.016C247.991 242.975 248.738 242.987 249.568 243.134C251.002 244.719 252.378 251.304 252.725 253.591C252.872 254.561 252.93 255.288 252.334 256.094L251.597 256.012C250.731 255.267 250.768 254.011 250.056 253.058C250.021 253.01 249.983 252.965 249.946 252.918C246.248 252.763 247.533 254.354 245.092 255.903C244.66 256.178 244.619 256.064 244.145 255.976L243.958 255.628C244.553 251.469 245.765 246.98 247.15 243.016Z"/>
	<path fill="#95F1BC" d="M450.413 287.299C450.642 286.534 450.885 285.789 451.184 285.048L451.58 285.046C453.183 288.093 452.982 292.906 453.88 296.306C454.281 297.822 455.774 301.205 455.418 302.625C455.4 302.698 455.362 302.766 455.334 302.837C456.337 303.653 460.187 312.771 460.278 314.157C460.288 314.31 460.241 314.57 460.222 314.705C461.13 315.258 466.351 323.689 466.741 325.041C466.241 325.706 465.645 325.889 464.815 326.026C464.627 326.057 464.436 326.069 464.246 326.086L465.082 325.327C463.831 323.048 459.341 315.179 457.92 313.855C457.703 313.579 457.391 313.371 457.119 313.151L457.632 312.58C457.664 310.636 455.563 306.14 454.511 304.538C454.524 304.462 454.545 304.386 454.55 304.309C454.636 302.92 453.515 300.182 452.595 299.15L451.875 299.175C452.044 298.221 451.978 297.214 451.936 296.25C451.863 294.587 451.658 292.056 450.382 290.876L450.866 290.483C451.195 289.378 450.919 288.295 450.413 287.299Z"/>
	<path fill="white" d="M353.66 242.906C354.219 242.924 354.951 242.892 355.464 243.138C357.768 244.245 359.166 249.954 359.978 252.308C360.072 249.494 358.974 245.734 359.869 243.097C360.635 242.921 360.612 242.881 361.345 243.292C362.882 245.785 361.993 252.397 361.955 255.3C361.67 255.854 361.548 255.902 361.007 256.23C360.759 256.163 360.693 256.156 360.477 256.068C358.586 255.301 356.672 249.799 355.793 247.884C355.864 249.596 356.487 254.752 355.544 256.002L354.795 256.055C354.622 255.924 354.552 255.887 354.419 255.735C353.15 254.293 353.66 245.133 353.66 242.906Z"/>
	<path fill="white" d="M282.233 242.978C283.021 242.957 283.681 242.99 284.446 243.188C286.806 244.884 287.945 249.366 288.995 251.977C288.984 249.399 288.462 246.452 288.777 243.937C288.84 243.426 289.031 243.441 289.423 243.143C290.115 243.13 290.297 243.033 290.859 243.468C291.303 247.414 291.031 251.528 290.981 255.497L290.811 255.748C290.153 256.082 290.064 256.131 289.291 256.061C287.293 254.882 285.89 250.221 284.827 248.013C284.758 249.89 285.367 254.481 284.458 255.796C283.666 256.023 283.277 255.986 282.515 255.677C281.374 253.517 282.177 245.696 282.233 242.978Z"/>
	<path fill="white" d="M333.147 243.003C334.07 242.976 335.079 242.886 335.911 243.356C337.176 244.069 338.044 245.382 338.478 246.743C339.192 248.987 338.976 251.652 337.887 253.739C337.156 255.139 336.427 255.734 334.935 256.19C334.299 256.217 333.652 256.243 333.027 256.1C331.879 255.838 330.971 254.987 330.369 254.004C329.21 252.111 329.136 249.526 329.665 247.423C330.222 245.204 331.232 244.169 333.147 243.003Z"/>
	<path fill="#0D231E" d="M333.173 244.923C333.746 244.998 334.376 245.062 334.874 245.38C335.738 245.931 336.008 247.059 336.16 248.011C336.441 249.772 336.128 252.625 335.065 254.071C334.568 254.067 333.986 254.087 333.522 253.891C332.92 253.636 332.505 253.053 332.262 252.467C331.326 250.216 332.28 247.05 333.173 244.923Z"/>
	<path fill="white" d="M297.237 243.024C298.155 242.967 299.369 242.792 300.233 243.145C301.364 243.608 302.143 244.756 302.609 245.846C303.578 248.11 303.512 251.331 302.57 253.592C302.068 254.796 301.216 255.6 300.007 256.054C299.235 256.101 298.423 256.166 297.657 256.046C296.56 255.873 295.768 255.192 295.136 254.311C293.822 252.477 293.604 249.97 294.032 247.806C294.468 245.597 295.348 244.261 297.237 243.024Z"/>
	<path fill="#0D231E" d="M298.267 244.889C298.524 244.949 298.772 245.003 299.014 245.112C299.822 245.477 300.279 246.401 300.528 247.205C301.234 249.485 300.698 252.062 299.683 254.149C299.078 254.123 298.537 254.05 297.943 253.934C297.071 253.164 296.669 252.02 296.55 250.88C296.333 248.792 296.9 246.475 298.267 244.889Z"/>
	<path fill="white" d="M365.501 242.997C367.608 242.966 370.303 242.721 372.188 243.821C373.226 244.426 373.765 245.383 374.028 246.53C374.598 249.013 374.229 252.673 372.845 254.809C372.794 254.847 372.743 254.884 372.693 254.923C370.739 256.434 367.846 255.971 365.496 255.931L365.501 242.997Z"/>
	<path fill="#0D231E" d="M368.046 244.97C368.535 245.079 369.048 245.184 369.522 245.352Q369.708 245.417 369.886 245.502Q370.063 245.587 370.231 245.691Q370.399 245.794 370.554 245.915Q370.71 246.036 370.852 246.173Q370.994 246.31 371.12 246.461Q371.246 246.612 371.356 246.776Q371.465 246.94 371.557 247.115Q371.648 247.29 371.72 247.473C372.519 249.451 371.72 251.712 370.949 253.561C370.512 253.768 369.942 254.005 369.462 254.059C369.072 254.104 368.676 253.981 368.414 253.694C367.141 252.301 367.951 246.779 368.046 244.97Z"/>
	<path fill="white" d="M457.119 313.151C457.391 313.371 457.703 313.579 457.92 313.855C459.341 315.179 463.831 323.048 465.082 325.327L464.246 326.086L463.588 326.446C462.901 327.026 461.558 327.732 461.514 328.72C461.502 328.994 461.554 329.144 461.616 329.396C461.39 329.524 461.206 329.624 460.95 329.681C457.806 330.38 452.069 328.528 449.321 326.995C449.809 326.517 450.061 325.873 450.359 325.268C451.836 324.132 456.632 315.153 457.119 313.151Z"/>
	<path fill="#95F1BC" d="M450.359 325.268C452.967 326.917 460.103 324.362 463.588 326.446C462.901 327.026 461.558 327.732 461.514 328.72C461.502 328.994 461.554 329.144 461.616 329.396C461.39 329.524 461.206 329.624 460.95 329.681C457.806 330.38 452.069 328.528 449.321 326.995C449.809 326.517 450.061 325.873 450.359 325.268Z"/>
	<path fill="white" d="M468.573 272.801C468.89 273.173 469.279 273.613 469.484 274.063C470.337 275.93 471.38 284.058 470.66 285.809C472.236 285.395 474.221 285.171 475.107 283.682C475.635 284.275 475.764 284.389 475.748 285.236C475.737 285.817 475.457 286.297 475.184 286.793C474.879 286.942 474.574 287.109 474.254 287.223C474.396 287.507 474.679 287.857 474.573 288.162C474.28 289.005 473.672 289.645 472.871 290.046C472.678 290.143 472.569 290.169 472.352 290.243C475.79 292.127 485.271 289.623 487.852 291.175C488.454 292.523 488.583 310.77 488.051 312.388C487.971 312.629 487.88 312.765 487.754 312.996Q478.674 312.953 469.599 313.268C469.359 313.221 469.093 313.073 468.867 312.976C466.92 309.727 465.463 298.877 465.702 294.938C465.782 293.634 466.687 286.896 467.446 286.241Q468.249 286.992 469.039 287.757L469.445 287.664C469.922 286.482 469.036 274.157 468.573 272.801Z"/>
	<path fill="#0D231E" d="M472.352 290.243C471.768 290.379 471.347 290.471 470.742 290.357L470.392 289.58C470.41 289.01 470.492 288.554 470.761 288.043C471.284 287.045 471.943 286.43 473.009 286.122C473.773 286.454 473.827 286.506 474.254 287.223C474.396 287.507 474.679 287.857 474.573 288.162C474.28 289.005 473.672 289.645 472.871 290.046C472.678 290.143 472.569 290.169 472.352 290.243Z"/>
	<path fill="white" d="M375.735 131.475C380.391 131.477 390.98 130.829 394.947 131.937C395.427 132.697 395.281 133.881 395.289 134.762Q395.042 163.023 395.119 191.282C399.664 191.29 404.239 191.204 408.781 191.341C409.425 193.115 409.494 203.453 408.8 204.958C408.706 205.163 408.698 205.168 408.596 205.338C404.088 205.4 399.557 205.375 395.053 205.569Q395.097 213.07 395.043 220.571C389.736 220.565 384.415 220.63 379.11 220.49C378.936 215.605 379 210.721 379.037 205.834C365.638 205.699 352.237 206.027 338.842 205.897C338.785 201.188 338.255 195.878 338.97 191.236C339.929 185.018 349.107 174.431 352.29 168.551C352.62 166.622 372.889 136.157 375.735 131.475Z"/>
	<path fill="#32F092" d="M367.404 188.585C371.164 183.683 375.337 179.069 379.141 174.18C379.607 179.855 379.141 185.831 379.04 191.536C370.989 191.493 362.902 191.396 354.853 191.576C354.787 191.504 354.531 191.272 354.517 191.182C357.854 191.864 365.72 191.374 369.533 191.381L367.404 188.585Z"/>
	<path fill="#0D231E" d="M379.554 151.702C379.04 159.179 379.291 166.691 379.141 174.18C375.337 179.069 371.164 183.683 367.404 188.585L369.533 191.381C365.72 191.374 357.854 191.864 354.517 191.182C356.123 188.481 358.173 185.948 359.953 183.346Q364.543 176.5 369.007 169.572C372.787 163.743 375.917 157.603 379.554 151.702Z"/>
	<path fill="white" d="M280.734 146.565C284.898 139.555 289.053 134.031 297.384 131.891C304.806 129.985 313.599 130.996 320.225 135.01C325.012 137.911 327.68 142.373 330.326 147.115Q330.965 148.434 331.529 149.787C337.314 163.737 337.461 189.051 331.625 203.08C328.494 210.609 323.203 216.855 315.515 219.95C308.965 222.586 301.543 222.88 295.023 220.013C287.047 216.507 281.859 209.381 278.791 201.465C273.964 189.008 273.25 172.85 276.149 159.87C277.179 155.258 278.82 150.876 280.734 146.565Z"/>
	<path fill="#0D231E" d="M303.33 145.956C305.843 145.632 308.052 145.795 310.236 147.172C314.504 149.863 316.455 155.424 317.508 160.109C319.848 170.525 320.332 192.482 314.344 201.783C312.496 204.653 310.321 206.262 307.005 207.001C304.954 207.079 303.109 207.109 301.237 206.161C297.457 204.248 295.378 200.228 294.101 196.364C290.113 184.298 289.935 164.402 295.842 152.908C297.556 149.573 299.728 147.141 303.33 145.956Z"/>
	<path fill="#2EB26D" d="M497.841 208.922C499.602 207.671 501.025 204.163 502.135 202.24C506.426 194.805 513.676 189.045 522.036 186.868C526.439 185.721 534.313 185.041 538.398 187.445C546.126 190.028 553.527 198.118 557.092 205.224C563.551 218.101 564.741 236.133 560.165 249.786C557.071 259.016 550.414 267.386 541.594 271.691Q540.768 272.1 539.892 272.388C540.483 273.579 540.331 284.964 539.813 286.64C539.735 286.896 539.64 287.141 539.529 287.384C538.648 288.662 536.165 289.652 534.669 289.892C534.436 289.929 534.203 289.939 533.968 289.941C532.281 290.608 529.924 290.308 528.128 290.204C524.184 290.999 503.047 290.757 498.409 290.224Q495.065 290.493 491.725 290.804C492.899 287.932 491.385 284.543 492.772 281.649C495.545 275.865 501.529 270.766 504.386 264.241C506.61 263.5 511.548 261.629 513.171 260.13C513.012 260.194 512.852 260.256 512.689 260.309C510.711 260.947 506.548 262.499 504.677 261.493C504.997 261.34 505.24 261.151 505.487 260.9C507.173 259.188 511.738 251.74 511.688 249.541C510.848 252.589 505.922 257.907 503.714 260.296C503.458 260.774 503.258 261.146 502.837 261.505C500.763 265.805 495.955 271.56 491.495 273.374C492.997 270.76 491.399 261.294 492.159 257.535C493.266 252.062 502.861 236.921 502.632 233.147C502.626 233.047 502.628 232.948 502.622 232.849C502.619 232.789 502.612 232.73 502.607 232.67C502.478 233.907 492.923 250.901 491.646 252.762C491.3 253.266 490.782 253.696 490.33 254.104C490.649 253.53 490.941 252.914 491.024 252.256C491.553 248.065 490.703 224.832 489.552 220.792C489.504 220.626 489.444 220.464 489.386 220.301C489.703 221.493 488.597 233.405 488.03 234.448C487.907 234.672 487.867 234.72 487.732 234.908C487.831 232.315 483.954 226.555 482.28 224.802C481.911 224.416 481.505 224.07 481.089 223.736C483.075 226.613 487.386 234.191 488.248 237.358C488.861 239.61 488.937 265.93 488.384 268.476C488.282 268.946 488.059 269.359 487.793 269.753C486.41 267.852 475.164 258.192 472.981 256.969C473.747 255.54 472.533 242.961 471.914 240.865L471.695 240.786C471.616 244.073 472.916 253.479 471.454 255.759C471.182 254.358 469.593 253.131 468.461 252.368C467.133 251.473 465.902 250.928 464.355 250.525C467.457 252.456 487.587 273.061 488.458 276.47C488.802 277.818 488.597 279.46 488.473 280.83C488.204 281.137 488.215 281.277 487.792 281.31C487.244 281.353 486.748 281.316 486.313 281.693C487.121 281.788 487.756 281.683 488.3 282.328C488.583 284.624 488.842 289.138 487.852 291.175C485.271 289.623 475.79 292.127 472.352 290.243C472.569 290.169 472.678 290.143 472.871 290.046C473.672 289.645 474.28 289.005 474.573 288.162C474.679 287.857 474.396 287.507 474.254 287.223C474.574 287.109 474.879 286.942 475.184 286.793C475.457 286.297 475.737 285.817 475.748 285.236C475.764 284.389 475.635 284.275 475.107 283.682C475.683 283.024 475.76 282.235 475.797 281.386C476.194 272.23 471.426 258.492 465.161 251.746C465.217 251.674 465.275 251.602 465.329 251.528C466.918 249.329 467.093 245.536 466.606 242.972C466.132 240.482 464.951 238.012 462.796 236.574C462.555 236.4 462.647 236.441 462.382 236.343C459.385 235.239 456.376 234.724 453.362 236.081C450.367 237.429 450.466 239.218 449.435 241.973C448.93 241.685 448.894 240.601 448.538 240.039C447.989 240.283 447.736 241.468 447.396 242.054C447.157 241.862 446.998 241.717 446.884 241.424C446.638 240.794 446.629 240.296 446.954 239.679C448.087 237.523 452.274 234.457 454.627 233.921C456.576 233.477 460.592 234.291 462.208 235.414C462.294 235.474 462.379 235.536 462.464 235.597C462.525 235.549 462.591 235.508 462.646 235.454C464.384 233.77 466.067 228.367 467.372 225.987C468.082 224.691 469.174 223.516 470.09 222.355C470.976 221.232 472.816 219.557 472.761 218.151C474.356 218.156 476.505 215.326 477.863 214.389C480.106 212.841 482.5 211.903 484.845 210.599L485.177 210.412C486.759 210.45 488.789 210.242 490.315 209.835C491.901 209.949 496.764 210.7 497.828 209.832L497.841 208.922Z"/>
	<path fill="#32F092" d="M539.892 272.388C540.483 273.579 540.331 284.964 539.813 286.64C539.735 286.896 539.64 287.141 539.529 287.384C538.648 288.662 536.165 289.652 534.669 289.892C534.436 289.929 534.203 289.939 533.968 289.941L534.002 289.656C534.633 287.644 534.47 276.425 533.89 274.265C536.053 274.043 538 273.449 539.892 272.388Z"/>
	<path fill="#32F092" d="M498.409 290.224C500.404 288.762 503.111 288.216 505.348 287.138C512.874 283.51 517.031 277.595 521.014 270.541L521.4 270.435C523.751 271.438 525.911 272.805 528.1 274.114L528.23 274.674C528.912 276.158 528.943 288.268 528.236 289.993C528.206 290.066 528.164 290.134 528.128 290.204C524.184 290.999 503.047 290.757 498.409 290.224Z"/>
	<path fill="#0D231E" d="M530.576 209.528C530.6 209.462 530.627 209.398 530.649 209.332C531.807 205.932 531.006 198.421 531.463 194.377C532.152 195.902 532.485 211.99 531.969 213.385C531.923 213.51 531.868 213.631 531.818 213.753C532.895 215.912 533.438 230.776 532.715 232.911C532.607 233.23 532.482 233.541 532.355 233.854C532.428 233.801 532.503 233.75 532.574 233.695C536.197 230.857 540.224 219.287 541.978 214.869C542.486 213.587 542.96 211.641 543.7 210.529C543.867 213.043 538.636 225.771 537.314 228.811C536.039 231.744 534.113 235.053 533.465 238.18C532.266 243.966 534.543 254.988 532.571 259.797C532.539 259.874 532.512 259.952 532.482 260.03C534.568 258.818 537.424 253.124 538.831 250.899C540.412 248.398 541.992 245.901 543.702 243.485C545.891 240.392 555.909 227.65 556.545 225.34C556.531 225.94 556.437 226.496 556.176 227.039C555.028 229.43 547.984 242.054 546.485 243.498C546.255 243.72 546.027 243.908 545.767 244.091C549.784 243.49 554.02 242.992 557.969 242.037C556.088 243.514 547.968 245.329 545.177 246.278C542.394 251.034 535.392 261.682 534.262 266.265C533.27 270.284 534.02 284.54 534.002 289.656L533.968 289.941C532.281 290.608 529.924 290.308 528.128 290.204C528.164 290.134 528.206 290.066 528.236 289.993C528.943 288.268 528.912 276.158 528.23 274.674C528.26 274.617 528.291 274.562 528.318 274.504C529.207 272.606 529.241 263.441 528.517 261.47C528.501 261.207 528.515 261.174 528.408 260.888C527.717 259.042 519.701 248.446 518.164 247.441C515.724 245.845 512.404 245.08 509.74 243.734C512.222 244.271 515.641 244.918 517.709 246.397C517.71 244.193 508.827 233.833 507.28 230.489C507.338 230.516 507.4 230.538 507.454 230.571C508.03 230.923 513.755 237.793 513.823 238.027C513.86 238.156 513.887 238.287 513.919 238.417C514.863 237.06 515.721 227.9 515.469 226.174C516.004 228.82 516.354 237.476 514.93 239.709C516.993 240.989 528.419 253.133 529.036 255.136C529.336 254.55 529.503 253.98 529.539 253.325C529.828 248.05 529.39 242.547 529.336 237.25C529.28 231.858 529.598 226.467 529.785 221.08C529.842 219.436 530.041 217.28 529.49 215.721C527.895 211.207 524.061 205.692 521.786 201.211C521.887 201.252 521.997 201.278 522.09 201.335C523.45 202.166 529.877 213.063 529.909 214.686C529.97 214.592 530.034 214.499 530.093 214.404C530.869 213.135 530.937 210.939 530.576 209.528Z"/>
	<path fill="#2EB26D" d="M71.8494 288.872C69.9724 288.813 68.1227 288.694 66.2612 288.439Q65.1431 288.275 64.0345 288.056Q62.9258 287.837 61.8293 287.564Q60.7328 287.291 59.6511 286.964Q58.5693 286.637 57.505 286.257Q56.4407 285.878 55.3964 285.446Q54.352 285.014 53.3302 284.531Q52.3084 284.049 51.3117 283.516Q50.3149 282.984 49.3455 282.403Q48.3762 281.822 47.4366 281.194Q46.497 280.566 45.5895 279.892Q44.682 279.219 43.8087 278.501Q42.9355 277.784 42.0986 277.025Q41.2618 276.265 40.4633 275.465Q39.6649 274.665 38.9068 273.827Q38.1487 272.989 37.4328 272.114Q36.7169 271.24 36.045 270.331Q35.33 269.368 34.6627 268.371Q33.9954 267.374 33.3774 266.346Q32.7594 265.318 32.1921 264.261Q31.6248 263.204 31.1096 262.121Q30.5944 261.038 30.1325 259.931Q29.6705 258.824 29.263 257.696Q28.8555 256.567 28.5034 255.421Q28.1512 254.274 27.8552 253.111Q27.5593 251.949 27.3202 250.773Q27.0811 249.598 26.8995 248.412Q26.7179 247.226 26.5942 246.033Q26.4705 244.84 26.4049 243.642Q26.3394 242.444 26.3322 241.245Q26.325 240.045 26.3762 238.847Q26.4273 237.648 26.5367 236.453Q26.6461 235.259 26.8135 234.071Q26.96 232.983 27.1601 231.903Q27.3602 230.823 27.6134 229.755Q27.8666 228.686 28.1723 227.631Q28.4779 226.577 28.8353 225.538Q29.1927 224.5 29.6009 223.481Q30.0092 222.461 30.4673 221.463Q30.9253 220.465 31.4322 219.491Q31.939 218.517 32.4933 217.569Q33.0476 216.621 33.6481 215.702Q34.2485 214.783 34.8936 213.894Q35.5388 213.006 36.227 212.15Q36.9152 211.294 37.6449 210.474Q38.3745 209.653 39.1438 208.87Q39.9131 208.087 40.7201 207.342Q41.5272 206.598 42.37 205.894Q43.2128 205.19 44.0894 204.529C54.8404 196.511 69.438 193.716 82.5767 195.631C91.8319 197.632 100.192 202.927 106.771 209.672C112.164 206.941 117.538 204.46 123.653 206.445C133.482 209.634 141.771 218.932 146.284 227.928C148.987 233.315 150.277 238.938 150.974 244.895C151.221 247.005 151.143 249.803 151.917 251.726C151.855 251.806 151.789 251.884 151.73 251.967C151.066 252.891 150.789 258.276 150.515 259.775C148.209 272.387 139.597 283.792 126.62 286.528C125.158 286.836 123.618 287.021 122.124 287.098C122.106 285.293 121.895 283.139 122.365 281.393C123.259 278.073 130.998 265.909 133.466 263.409C135.947 260.897 141.776 259.453 145.07 257.647C141.738 258.521 138.44 259.42 135.039 259.988C135.874 258.584 143.979 245.752 144.013 245.366C142.001 247.09 140.276 249.639 138.606 251.709Q133.997 257.42 129.481 263.204C127.107 266.276 124.839 269.487 122.171 272.314C121.871 267.309 121.361 261.431 122.298 256.503C123.243 251.531 125.516 246.418 127.25 241.666C128.399 238.516 129.964 235.279 130.646 232.001C130.664 231.916 130.683 231.831 130.7 231.747C130.711 231.696 130.72 231.644 130.729 231.593C128.933 234.967 127.657 238.63 126.117 242.122C124.805 245.098 123.238 248.007 122.133 251.065C121.551 244.236 121.118 237.326 120.946 230.474C120.832 225.925 121.076 221.279 120.544 216.757C120.009 221.909 120.341 227.546 119.106 232.564C116.388 229.06 113.721 225.412 110.634 222.222C112.904 226.644 116.306 230.275 118.921 234.475C119.248 246.706 119.236 259.134 118.896 271.366C117.577 270.186 110.136 262.256 109.491 262.085C108.98 262.474 108.692 262.699 108.641 263.384C108.388 266.785 116.386 274.153 118.507 277.145C118.65 280.317 118.537 283.475 118.435 286.646C111.632 285.504 104.743 282.389 99.5781 277.774C95.6586 281.385 91.0143 284.431 85.9378 286.15C84.3296 286.694 82.1939 286.758 80.7592 287.594C79.1167 288.263 77.4975 288.66 75.7515 288.965L75.9913 312.067C75.9562 312.924 76.1019 313.258 75.4874 313.886L73.674 314.158C73.139 314.124 72.6118 314.063 72.0802 313.997C71.1544 312.818 71.9075 292.246 71.8494 288.872Z"/>
	<path fill="#0D231E" d="M72.8979 225.69C73.1853 223.169 73.8941 206.574 74.5171 205.864C75.2281 210.894 74.7965 216.608 74.8815 221.715C75.0314 230.726 75.5354 239.812 75.1776 248.816C78.8736 240.371 82.7675 231.571 87.115 223.451C85.9356 227.852 83.9105 231.909 82.1923 236.111C79.9186 241.671 77.0922 248.336 76.2159 254.278C75.4336 259.583 75.8463 265.435 75.9771 270.794C82.0634 263.563 87.593 255.848 93.1198 248.187C96.1051 244.049 98.9697 239.715 102.292 235.837C98.4822 242.852 94.5983 250.12 90.3323 256.855C94.6591 256.106 98.971 254.346 103.263 253.811C99.2078 255.601 94.1115 256.935 90.456 259.37C87.3859 261.414 77.9199 276.352 76.3799 280.173C75.3444 282.743 75.7015 286.224 75.7515 288.965L75.9913 312.067C75.9562 312.924 76.1019 313.258 75.4874 313.886L73.674 314.158C73.139 314.124 72.6118 314.063 72.0802 313.997C71.1544 312.818 71.9075 292.246 71.8494 288.872C71.7794 284.489 72.0679 279.976 71.7452 275.614C67.6633 270.298 62.6213 263.468 57.5342 259.2C51.832 258.864 46.2397 258.429 40.58 257.643C45.698 257.068 50.9967 257.093 56.1456 256.981C52.1162 251.78 47.5935 246.842 43.2633 241.882C41.185 239.502 37.6806 236.584 36.4715 233.755C37.2404 234.024 52.2482 248.766 54.4221 250.84C54.5935 246.477 54.7234 242.095 55.3356 237.767C55.9645 242.629 55.8714 247.642 55.9507 252.543C61.2162 257.804 66.2814 263.42 71.7011 268.506C71.6258 260.511 71.8673 252.555 71.9948 244.566C72.0795 239.259 71.7963 233.497 72.6162 228.259C69.4215 222.633 65.0813 216.736 60.7263 211.938L60.8059 211.665C65.2138 215.6 69.5678 220.807 72.8979 225.69Z"/>
	<path fill="#32F092" d="M82.5235 70.4347C91.3224 68.3775 99.9986 66.0496 108.852 64.1808C181.258 48.8981 256.119 45.4153 329.936 46.7135Q360.072 47.0379 390.135 49.1689Q420.197 51.2998 450.078 55.2296C464.601 57.1816 478.983 59.328 493.346 62.2675C506.077 64.8727 518.466 68.3103 530.9 72.0578C533.483 72.8363 537.352 73.5178 539.583 74.9726C539.688 75.2285 539.775 75.4863 539.843 75.7551C540.244 77.344 539.468 85.6875 539.433 88.0459L539.062 131.886C539.049 134.433 539.472 147.268 538.54 148.787C533.307 149.091 527.396 150.705 524.039 155.043C523.155 156.187 522.464 158.002 521.361 158.912C520.537 159.592 517.043 158.201 515.805 158.1C512.924 157.863 509.444 158.953 507.294 160.911C506.275 161.84 505.487 162.961 504.422 163.856C504.365 163.904 504.307 163.95 504.25 163.997C515.656 164.325 527.164 164.153 538.574 164.021C538.829 164.455 538.953 164.941 538.993 165.44C539.238 168.551 538.953 171.93 538.963 175.062C538.974 178.688 539.331 182.693 538.937 186.285C538.887 186.742 538.686 187.099 538.398 187.445C534.313 185.041 526.439 185.721 522.036 186.868C513.676 189.045 506.426 194.805 502.135 202.24C501.025 204.163 499.602 207.671 497.841 208.922L497.828 209.832C496.764 210.7 491.901 209.949 490.315 209.835C488.789 210.242 486.759 210.45 485.177 210.412L484.845 210.599C482.5 211.903 480.106 212.841 477.863 214.389C476.505 215.326 474.356 218.156 472.761 218.151C472.076 214.348 424.03 165.491 417.694 158.785L402.161 142.274C399.855 139.793 397.742 137.097 395.289 134.762C395.281 133.881 395.427 132.697 394.947 131.937C390.98 130.829 380.391 131.477 375.735 131.475C372.889 136.157 352.62 166.622 352.29 168.551C350.511 167.149 348.916 165.292 347.312 163.687C342.345 158.714 335.771 151.268 330.326 147.115C327.68 142.373 325.012 137.911 320.225 135.01C313.599 130.996 304.806 129.985 297.384 131.891C289.053 134.031 284.898 139.555 280.734 146.565C279.137 146.877 254.131 172.519 250.342 176.043C249.403 180.069 250.049 187.073 250.088 191.416Q256.48 191.279 262.872 191.366Q262.826 198.656 262.943 205.945L250.127 205.933C250.136 210.684 250.217 215.445 250.148 220.195Q242.039 220.041 233.929 220.054C233.779 215.367 233.898 210.67 233.958 205.982Q222.296 206.129 210.634 206.042C206.383 206.028 201.517 205.572 197.337 206.328C188.303 215.753 178.816 224.724 169.658 234.026C164.857 238.903 157.064 247.858 151.917 251.726C151.143 249.803 151.221 247.005 150.974 244.895C150.277 238.938 148.987 233.315 146.284 227.928C141.771 218.932 133.482 209.634 123.653 206.445C117.538 204.46 112.164 206.941 106.771 209.672C100.192 202.927 91.8319 197.632 82.5767 195.631C83.5245 194.604 82.9419 156.529 82.8253 152.835C92.4323 152.593 102.039 152.584 111.647 152.425C110.061 149.693 108.301 147.359 105.257 146.173C101.676 144.777 98.0541 145.589 94.6571 147.069C91.694 142.911 87.3739 140.028 82.3578 139.076C83.0798 129.441 82.8193 119.531 82.8923 109.868C82.9904 96.8964 83.2911 83.3497 82.5235 70.4347Z"/>
	<path fill="white" d="M135.846 198.212C137.795 198.405 138.909 200.308 140.086 201.74L134.453 201.842C133.352 201.876 131.721 202.038 130.75 201.482C130.336 201.245 130.431 201.205 130.331 200.779C131.563 199.095 133.934 198.68 135.846 198.212Z"/>
	<path fill="white" d="M474.184 178.294C475.997 177.906 477.89 177.845 479.488 178.943C480.493 179.634 481.296 180.721 481.547 181.913C479.949 182.142 478.175 181.997 476.556 182Q472.377 182.087 468.202 181.879C470.243 180.913 472.318 179.569 474.184 178.294Z"/>
	<path fill="white" d="M408.916 95.4588C409.766 95.3594 410.653 95.2648 411.456 95.624C413.041 96.3329 414.695 97.9398 415.3 99.5739C417.53 99.8843 419.37 100.349 421.411 101.29L421.517 101.696C418.949 102.788 414.544 102.195 411.71 102.147C409.529 102.176 401.954 102.778 400.34 101.88C400.748 100.001 407.031 96.7188 408.916 95.4588Z"/>
	<path fill="white" d="M236.376 75.9938C237.36 75.9008 238.448 75.7387 239.426 75.9293C239.855 76.0131 240.329 76.1554 240.728 76.3362C242.331 77.0623 243.756 78.7453 245.238 79.7427C246.309 80.4633 247.679 80.691 248.692 81.4347C249.418 81.9678 250.013 82.9663 250.532 83.7019L239.856 83.9495C236.582 84.0115 229.246 84.7674 226.467 83.4883L226.447 83.0271C228.67 80.4845 233.233 77.1325 236.376 75.9938Z"/>
	<path fill="white" d="M447.444 77.2643C447.786 77.2122 448.094 77.1747 448.441 77.1726C450.679 77.1587 453.455 77.9387 455.075 79.5246L456.836 79.3455C458.672 79.1557 460.693 79.5062 462.327 80.4056C463.541 81.0738 464.852 82.2911 465.248 83.637C460.686 83.9916 456.029 83.8243 451.455 83.812C447.264 83.7672 439.716 84.7555 435.99 83.7893L435.688 83.2298C435.734 82.774 435.805 82.4253 436.006 82.0074C436.626 80.7154 438.1 79.0232 439.505 78.5992C440.636 78.258 441.924 78.7941 442.869 79.3936C442.946 79.4424 443.021 79.4937 443.098 79.5438C444.556 78.8086 446.042 78.1038 447.444 77.2643Z"/>
	<path fill="white" d="M168.715 150.055Q168.965 150.034 169.216 150.019C174.178 149.735 174.083 152.862 176.937 155.134C177.418 155.517 181.804 154.655 182.935 154.565C183.8 155.241 184.645 155.961 185.411 156.75C186.024 157.381 186.493 157.979 186.481 158.889C183.769 159.949 174.312 159.299 170.855 159.28C167.132 159.301 158.203 159.985 155.021 158.918C154.908 158.701 154.811 158.528 154.801 158.276C154.724 156.281 156.444 153.595 157.888 152.343C158.615 151.712 159.115 151.642 160.01 151.701C161.108 152.213 161.773 153.354 162.47 154.305C163.573 154.148 165.382 151.721 166.507 151.019C167.179 150.601 167.975 150.327 168.715 150.055Z"/>
	<path fill="white" d="M179.667 88.8323C181.463 88.6947 183.431 88.5872 185.196 88.9864C190.751 90.2428 194.187 93.9253 197.107 98.5799C198.517 98.0614 200.109 97.7645 201.609 97.7075C205.381 97.5642 207.907 99.4978 210.572 101.924C202.513 102.796 192.199 102.184 183.929 102.171C178.623 102.188 157.831 102.983 154.137 102.103L153.991 101.641C154.539 100.159 155.954 99.1045 157.311 98.3833C161.091 96.375 164.614 97.3054 168.465 98.4329Q168.944 97.4508 169.498 96.5087C171.871 92.4225 175.135 90.0439 179.667 88.8323Z"/>
	<path fill="white" d="M322.102 82.8399C323.859 82.7794 325.763 83.0903 327.434 83.6236C332.047 85.0952 334.818 88.5542 336.978 92.6837C338.612 92.4739 340.281 92.304 341.913 92.6074C344.902 93.1629 346.439 95.2462 348.093 97.6077C339.629 97.1947 331.061 97.4918 322.585 97.5249C313.818 97.5923 304.981 97.9776 296.223 97.6286C297.214 96.1739 298.256 94.7507 299.724 93.7399C302.486 91.8375 305.625 92.173 308.768 92.7175C309.226 91.8629 309.696 91.0099 310.23 90.1995C313.096 85.8482 317.113 83.874 322.102 82.8399Z"/>
	<path fill="white" d="M439.865 106.259C440.978 106.121 442.078 105.97 443.197 106.13C446.633 106.621 450.359 109.397 452.331 112.162C453.279 113.491 454.497 115.683 454.236 117.356C456.528 115.837 458.346 113.565 460.952 112.525C463.122 111.659 465.828 111.822 467.95 112.746C470.285 113.764 472.365 115.841 473.286 118.228C473.856 119.704 474.233 121.637 473.581 123.126C467.345 123.45 460.992 123.263 454.742 123.32Q444.618 123.254 434.496 123.465C429.608 123.601 424.696 124.01 419.807 123.884C420.99 121.587 419.276 117.761 420.398 115.388C421.565 112.921 424.745 111.578 427.141 110.695C429.021 111.284 431.46 112.845 432.573 114.499C435.703 111.642 433.763 109.317 439.865 106.259Z"/>
	<path fill="white" d="M230.576 131.806C237.116 131.747 243.668 131.613 250.207 131.774L250.162 160.831C250.152 165.769 249.722 171.158 250.342 176.043C249.403 180.069 250.049 187.073 250.088 191.416Q256.48 191.279 262.872 191.366Q262.826 198.656 262.943 205.945L250.127 205.933C250.136 210.684 250.217 215.445 250.148 220.195Q242.039 220.041 233.929 220.054C233.779 215.367 233.898 210.67 233.958 205.982Q222.296 206.129 210.634 206.042C206.383 206.028 201.517 205.572 197.337 206.328C196.285 206.15 195.213 206.08 194.152 205.982C194.019 201.559 193.187 195.659 194.51 191.46C196.358 185.594 201.357 179.872 204.547 174.615L230.576 131.806Z"/>
	<path fill="#95F1BC" d="M219.196 191.591Q226.371 182.952 233.938 174.653C233.968 177.488 234.513 189.816 233.779 191.692C229.178 191.742 223.707 192.373 219.196 191.591Z"/>
	<path fill="#0D231E" d="M209.729 191.838C218.606 179.375 225.813 165.778 234.04 152.896C234.029 160.118 234.281 167.442 233.938 174.653Q226.371 182.952 219.196 191.591C216.324 192.234 212.692 191.863 209.729 191.838Z"/>
</svg>
