<svg width="25" height="24" viewBox="0 0 25 24" fill="none" xmlns="http://www.w3.org/2000/svg">
    <path
        d="M19.5 3H5.5C4.39543 3 3.5 3.89543 3.5 5V19C3.5 20.1046 4.39543 21 5.5 21H19.5C20.6046 21 21.5 20.1046 21.5 19V5C21.5 3.89543 20.6046 3 19.5 3Z"
        style="stroke: light-dark(#66FFA1, #003314); stroke-width: 1.25; stroke-linecap: round; stroke-linejoin: round" />

    <path
        d="M9.5 11C10.6046 11 11.5 10.1046 11.5 9C11.5 7.89543 10.6046 7 9.5 7C8.39543 7 7.5 7.89543 7.5 9C7.5 10.1046 8.39543 11 9.5 11Z"
        style="stroke: light-dark(#66FFA1, #003314); stroke-width: 1.25; stroke-linecap: round; stroke-linejoin: round" />
    <path
        d="M21.5 15L18.414 11.914C18.0389 11.5391 17.5303 11.3284 17 11.3284C16.4697 11.3284 15.9611 11.5391 15.586 11.914L6.5 21"
        style="stroke: light-dark(#66FFA1, #003314); stroke-width: 1.25; stroke-linecap: round; stroke-linejoin: round" />
</svg>