<svg width="25" height="24" viewBox="0 0 25 24" fill="none" xmlns="http://www.w3.org/2000/svg">
    <path d="M22.5 14C22.5 16.1217 21.6571 18.1566 20.1569 19.6569C18.6566 21.1571 16.6217 22 14.5 22" stroke="#000A08"
        stroke-width="1.5" stroke-linecap="round" stroke-linejoin="round" />
    <path
        d="M18.5 11V10C18.5 9.46957 18.2893 8.96086 17.9142 8.58579C17.5391 8.21071 17.0304 8 16.5 8C15.9696 8 15.4609 8.21071 15.0858 8.58579C14.7107 8.96086 14.5 9.46957 14.5 10"
        stroke="#000A08" stroke-width="1.5" stroke-linecap="round" stroke-linejoin="round" />
    <path
        d="M14.5 10V9C14.5 8.46957 14.2893 7.96086 13.9142 7.58579C13.5391 7.21071 13.0304 7 12.5 7C11.9696 7 11.4609 7.21071 11.0858 7.58579C10.7107 7.96086 10.5 8.46957 10.5 9V10"
        stroke="#000A08" stroke-width="1.25" stroke-linecap="round" stroke-linejoin="round" />
    <path
        d="M10.5 9.5V4C10.5 3.46957 10.2893 2.96086 9.91421 2.58579C9.53914 2.21071 9.03043 2 8.5 2C7.96957 2 7.46086 2.21071 7.08579 2.58579C6.71071 2.96086 6.5 3.46957 6.5 4V14"
        stroke="#000A08" stroke-width="1.25" stroke-linecap="round" stroke-linejoin="round" />
    <path
        d="M18.5001 11C18.5001 10.4696 18.7108 9.96086 19.0859 9.58579C19.461 9.21071 19.9697 9 20.5001 9C21.0305 9 21.5392 9.21071 21.9143 9.58579C22.2894 9.96086 22.5001 10.4696 22.5001 11V14C22.5001 16.1217 21.6572 18.1566 20.157 19.6569C18.6567 21.1571 16.6218 22 14.5001 22H12.5001C9.7001 22 8.0001 21.14 6.5101 19.66L2.9101 16.06C2.56604 15.6789 2.38169 15.1802 2.39523 14.6669C2.40876 14.1537 2.61915 13.6653 2.98282 13.303C3.3465 12.9406 3.8356 12.7319 4.34888 12.7202C4.86215 12.7085 5.36027 12.8946 5.7401 13.24L7.5001 15"
        stroke="#000A08" stroke-width="1.25" stroke-linecap="round" stroke-linejoin="round" />
</svg>